<svg width="444" height="440" viewBox="0 0 444 440" fill="none" xmlns="http://www.w3.org/2000/svg">
<path d="M423.193 119.128C413.419 127.393 401.16 137.994 388.899 149.213C375.283 161.673 361.646 174.914 351.405 186.578C346.286 192.408 341.996 197.866 338.98 202.652C335.991 207.393 334.148 211.633 334.148 214.984C334.148 216.075 334.645 216.994 335.433 217.727C336.201 218.441 337.265 219.004 338.511 219.46C341.005 220.372 344.504 220.954 348.632 221.299C356.911 221.991 368.02 221.753 379.412 221.098C389.498 220.517 399.842 219.607 408.699 218.714C403.91 219.982 398.78 221.547 393.693 223.458C385.484 226.542 377.337 230.546 370.924 235.691C364.509 240.838 359.76 247.186 358.509 254.955C357.992 258.168 359.104 261.363 361.249 264.427C363.393 267.489 366.629 270.507 370.546 273.428C378.384 279.272 389.141 284.861 399.956 289.707C410.782 294.559 421.718 298.69 429.943 301.606C430.414 301.773 430.876 301.936 431.329 302.095C424.366 301.012 415.275 299.758 405.876 298.906C395.966 298.009 385.674 297.555 377.164 298.234C372.91 298.573 369.062 299.197 365.913 300.21C362.783 301.217 360.224 302.645 358.697 304.676C354.317 310.507 355.358 318.951 358.914 327.927C362.501 336.98 368.793 346.958 375.549 356.209C382.312 365.47 389.578 374.05 395.149 380.312C395.625 380.847 396.089 381.366 396.539 381.866C396.162 381.586 395.777 381.3 395.383 381.009C388.949 376.255 380.201 370.025 370.955 364.133C361.718 358.247 351.944 352.673 343.467 349.252C339.231 347.542 335.272 346.351 331.84 345.944C328.424 345.538 325.381 345.891 323.122 347.451C320.913 348.976 319.275 351.578 318.048 354.797C316.815 358.032 315.957 361.999 315.381 366.393C314.228 375.184 314.186 385.839 314.635 396.11C315.084 406.388 316.026 416.321 316.856 423.682C317.08 425.671 317.296 427.473 317.492 429.044C316.637 427.181 315.608 424.965 314.434 422.484C310.804 414.811 305.782 404.594 300.219 394.429C294.661 384.271 288.544 374.128 282.721 366.623C279.812 362.874 276.946 359.743 274.232 357.597C271.548 355.476 268.843 354.184 266.298 354.445C261.781 354.909 257.738 358.361 254.183 363.25C250.6 368.177 247.358 374.775 244.495 381.945C241.411 389.669 238.745 398.117 236.555 405.972C237.273 398.666 237.683 390.628 237.384 382.589C236.797 366.825 233.477 350.841 224.178 340.441C221.189 337.099 216.54 336.486 211.085 337.607C205.612 338.73 199.059 341.641 191.885 345.743C177.523 353.955 160.401 367.101 143.984 380.946C127.556 394.799 111.793 409.387 100.138 420.508C97.3442 423.175 94.7859 425.642 92.5108 427.853C93.5599 426.502 94.6717 425.062 95.8369 423.545C103.788 413.19 114.228 399.201 124.178 384.669C134.123 370.146 143.602 355.046 149.611 342.479C152.613 336.202 154.775 330.502 155.68 325.794C156.574 321.143 156.298 317.154 153.989 314.634C151.775 312.217 147.805 310.811 142.847 310.06C137.838 309.301 131.604 309.181 124.625 309.518C110.661 310.193 93.5572 312.711 76.982 315.759C60.3994 318.809 44.3138 322.396 32.376 325.22C32.0848 325.289 31.7961 325.357 31.5099 325.425C41.3711 321.704 54.1257 316.64 66.9437 310.846C80.4379 304.747 94.0396 297.822 104.413 290.787C109.598 287.271 114.012 283.703 117.206 280.172C120.386 276.656 122.451 273.073 122.739 269.527C123.074 265.391 121.221 261.459 117.958 257.799C114.695 254.14 109.942 250.656 104.249 247.373C92.8567 240.802 77.4822 234.909 62.0913 229.976C46.688 225.039 31.2147 221.046 19.5963 218.288C18.8897 218.12 18.1973 217.957 17.52 217.799C17.587 217.804 17.6542 217.81 17.7215 217.816C28.4953 218.758 42.9904 219.745 57.8614 219.925C72.7219 220.104 88.0052 219.478 100.337 217.176C106.501 216.025 111.975 214.447 116.303 212.314C120.622 210.186 123.905 207.452 125.516 203.934C127.141 200.385 126.86 196.242 125.31 191.838C123.759 187.431 120.9 182.646 117.186 177.701C109.754 167.809 98.7598 157.095 87.4417 147.227C76.1304 137.364 64.4551 128.312 55.6026 121.722C56.1578 122.028 56.7244 122.339 57.3018 122.656C68.0093 128.529 82.4411 136.154 97.3261 143.153C112.201 150.146 127.572 156.537 140.146 159.919C146.428 161.609 152.074 162.566 156.641 162.445C161.179 162.324 164.892 161.127 166.956 158.236C169.428 154.773 170.689 150.285 171.055 145.151C171.421 140.014 170.895 134.163 169.73 127.906C167.4 115.395 162.489 101.124 156.853 87.4355C153.011 78.1053 148.825 69.0252 144.872 60.9295C151.082 70.8755 158.407 82.2547 166.083 93.4404C175.694 107.445 185.875 121.174 195.124 131.413C199.746 136.53 204.161 140.803 208.175 143.804C212.152 146.778 215.891 148.622 219.135 148.622C223.465 148.622 227.263 146.296 230.566 142.463C233.864 138.635 236.756 133.209 239.303 126.754C244.399 113.835 248.208 96.5352 251.041 78.9235C253.32 64.752 254.973 50.3386 256.152 37.7767C256.19 52.2486 256.558 69.4712 257.671 86.8512C258.962 106.998 261.256 127.397 265.213 143.98C267.191 152.271 269.593 159.642 272.511 165.564C275.423 171.472 278.895 176.033 283.067 178.574C287.451 181.244 293.3 181.95 300.038 181.273C306.791 180.596 314.559 178.518 322.892 175.479C339.559 169.402 358.642 159.424 376.653 148.843C394.224 138.521 410.81 127.604 423.193 119.128Z" stroke="#353333" stroke-width="2"/>
</svg>
