<svg width="48" height="48" viewBox="0 0 48 48" fill="none" xmlns="http://www.w3.org/2000/svg">
<path d="M27.0886 20.9119C25.4504 19.2744 23.2289 18.3545 20.9126 18.3545C18.5963 18.3545 16.3748 19.2744 14.7366 20.9119L8.5586 27.0879C6.92035 28.7262 6 30.9481 6 33.2649C6 35.5817 6.92035 37.8037 8.5586 39.4419C10.1968 41.0802 12.4188 42.0005 14.7356 42.0005C17.0524 42.0005 19.2744 41.0802 20.9126 39.4419L24.0006 36.3539" stroke="white" stroke-width="4" stroke-linecap="round" stroke-linejoin="round"/>
<path d="M20.9141 27.0876C22.5523 28.7252 24.7738 29.6451 27.0901 29.6451C29.4064 29.6451 31.6278 28.7252 33.2661 27.0876L39.4441 20.9116C41.0823 19.2734 42.0027 17.0514 42.0027 14.7346C42.0027 12.4178 41.0823 10.1959 39.4441 8.55762C37.8058 6.91938 35.5839 5.99902 33.2671 5.99902C30.9502 5.99902 28.7283 6.91938 27.0901 8.55762L24.0021 11.6456" stroke="white" stroke-width="4" stroke-linecap="round" stroke-linejoin="round"/>
</svg>
