<svg width="48" height="48" viewBox="0 0 48 48" fill="none" xmlns="http://www.w3.org/2000/svg">
<path fill-rule="evenodd" clip-rule="evenodd" d="M48 24C48 37.254 37.254 48 24 48C10.746 48 0 37.254 0 24C0 10.746 10.746 0 24 0C37.254 0 48 10.746 48 24ZM24.86 17.718C22.526 18.688 17.86 20.698 10.864 23.746C9.728 24.198 9.132 24.64 9.078 25.072C8.986 25.804 9.902 26.092 11.146 26.482C11.316 26.536 11.492 26.59 11.672 26.65C12.898 27.048 14.546 27.514 15.402 27.532C16.18 27.548 17.048 27.228 18.006 26.572C24.542 22.158 27.916 19.928 28.128 19.88C28.278 19.846 28.486 19.802 28.626 19.928C28.766 20.052 28.752 20.288 28.738 20.352C28.646 20.738 25.058 24.076 23.198 25.804C22.618 26.342 22.208 26.724 22.124 26.812C21.936 27.006 21.744 27.192 21.56 27.37C20.42 28.466 19.568 29.29 21.608 30.634C22.588 31.28 23.372 31.814 24.154 32.346C25.008 32.928 25.86 33.508 26.964 34.232C27.244 34.416 27.512 34.606 27.774 34.792C28.768 35.502 29.662 36.138 30.766 36.038C31.406 35.978 32.07 35.376 32.406 33.578C33.2 29.326 34.764 20.118 35.126 16.322C35.148 16.0068 35.1346 15.6902 35.086 15.378C35.0569 15.1259 34.9341 14.8939 34.742 14.728C34.456 14.494 34.012 14.444 33.812 14.448C32.91 14.464 31.526 14.946 24.86 17.718Z" fill="white"/>
</svg>
