<svg width="48" height="48" viewBox="0 0 48 48" fill="none" xmlns="http://www.w3.org/2000/svg">
<path d="M47.287 9.87415C45.617 10.6142 43.823 11.1142 41.937 11.3402C43.883 10.1757 45.3389 8.34309 46.033 6.18415C44.2047 7.27013 42.2037 8.03454 40.117 8.44415C38.7138 6.94588 36.8551 5.95281 34.8297 5.6191C32.8042 5.2854 30.7252 5.62974 28.9155 6.59866C27.1058 7.56758 25.6666 9.10688 24.8213 10.9776C23.9761 12.8482 23.7721 14.9457 24.241 16.9442C20.5364 16.7581 16.9123 15.7953 13.6038 14.118C10.2954 12.4407 7.37668 10.0865 5.037 7.20815C4.237 8.58815 3.777 10.1882 3.777 11.8922C3.77611 13.4261 4.15387 14.9366 4.87676 16.2896C5.59965 17.6426 6.64532 18.7962 7.921 19.6482C6.44155 19.6011 4.99475 19.2013 3.701 18.4822V18.6022C3.70085 20.7536 4.44507 22.8389 5.80737 24.5041C7.16967 26.1694 9.06614 27.312 11.175 27.7382C9.80257 28.1096 8.36368 28.1643 6.967 27.8982C7.56199 29.7494 8.72099 31.3682 10.2817 32.528C11.8425 33.6878 13.7268 34.3305 15.671 34.3662C12.3707 36.957 8.29477 38.3623 4.099 38.3562C3.35576 38.3564 2.61315 38.313 1.875 38.2262C6.13395 40.9645 11.0917 42.4178 16.155 42.4122C33.295 42.4122 42.665 28.2162 42.665 15.9042C42.665 15.5042 42.655 15.1002 42.637 14.7002C44.4596 13.3821 46.0328 11.7499 47.283 9.88015L47.287 9.87415Z" fill="white"/>
</svg>
