<svg width="1920" height="1209" viewBox="0 0 1920 1209" fill="none" xmlns="http://www.w3.org/2000/svg">
<g opacity="0.8">
<path d="M837.409 1323.88C650.545 1199.21 522.341 1066.15 466.085 951.833C409.807 837.471 425.623 742.098 526.127 692.459C626.631 642.82 793.272 648.076 981.863 697.088C1170.38 746.08 1380.44 838.709 1567.3 963.382C1754.17 1088.06 1882.37 1221.11 1938.63 1335.43C1994.91 1449.79 1979.09 1545.16 1878.59 1594.8C1778.08 1644.44 1611.44 1639.19 1422.85 1590.17C1234.33 1541.18 1024.27 1448.55 837.409 1323.88Z" stroke="#353333" stroke-width="2"/>
<path d="M757.876 1363.16C530.368 1211.37 374.269 1049.36 305.769 910.169C237.248 770.928 256.472 654.743 378.938 594.257C501.403 533.771 704.403 540.198 934.022 599.873C1163.57 659.528 1419.32 772.31 1646.83 924.101C1874.34 1075.89 2030.44 1237.9 2098.94 1377.09C2167.46 1516.33 2148.24 1632.52 2025.77 1693C1903.31 1753.49 1700.31 1747.06 1470.69 1687.39C1241.14 1627.73 985.385 1514.95 757.876 1363.16Z" stroke="#353333" stroke-width="2"/>
<path d="M678.491 1402.89C410.338 1223.98 226.344 1033.03 145.601 868.955C64.8363 704.834 87.469 567.838 231.896 496.504C376.324 425.171 615.681 432.77 886.328 503.107C1156.9 573.424 1458.36 706.36 1726.51 885.269C1994.66 1064.18 2178.66 1255.13 2259.4 1419.2C2340.16 1583.32 2317.53 1720.32 2173.1 1791.65C2028.68 1862.99 1789.32 1855.39 1518.67 1785.05C1248.1 1714.73 946.644 1581.8 678.491 1402.89Z" stroke="#353333" stroke-width="2"/>
<path d="M598.959 1442.17C290.161 1236.15 78.272 1016.25 -14.7138 827.292C-107.722 638.292 -81.6809 480.484 84.7086 398.303C251.098 316.123 526.812 324.893 838.487 405.893C1150.09 486.873 1497.24 639.962 1806.04 845.988C2114.84 1052.01 2326.73 1271.91 2419.71 1460.87C2512.72 1649.87 2486.68 1807.68 2320.29 1889.86C2153.9 1972.04 1878.19 1963.27 1566.51 1882.27C1254.91 1801.29 907.757 1648.2 598.959 1442.17Z" stroke="#353333" stroke-width="2"/>
<g opacity="0.5" filter="url(#filter0_d_196_99)">
<path d="M605.601 1447.63C603.365 1446.15 601.131 1444.66 598.899 1443.17L599.795 1442.73L598.959 1442.17L598.123 1441.61L597.226 1442.06C594.996 1440.57 592.771 1439.08 590.551 1437.59L591.45 1437.15C591.12 1436.92 590.789 1436.7 590.458 1436.48L589.787 1436.03L588.887 1436.47C586.67 1434.98 584.457 1433.49 582.25 1431.99L583.152 1431.56C582.601 1431.18 582.049 1430.81 581.498 1430.44L580.595 1430.88C578.391 1429.38 576.191 1427.89 573.996 1426.4L574.902 1425.96C574.353 1425.59 573.805 1425.21 573.257 1424.84L572.351 1425.28C570.159 1423.78 567.972 1422.29 565.79 1420.79L566.699 1420.36C566.153 1419.98 565.609 1419.61 565.064 1419.24L564.155 1419.67C561.975 1418.17 559.801 1416.68 557.632 1415.18L558.543 1414.75C558.001 1414.37 557.46 1414 556.918 1413.63L556.006 1414.06C553.84 1412.56 551.678 1411.06 549.522 1409.56L550.436 1409.13C549.897 1408.76 549.359 1408.38 548.82 1408.01L547.905 1408.44C545.752 1406.94 543.603 1405.44 541.459 1403.94L542.377 1403.51C541.835 1403.13 541.294 1402.75 540.752 1402.38L539.835 1402.8C537.667 1401.28 535.504 1399.76 533.346 1398.24L534.267 1397.82C533.727 1397.44 533.189 1397.06 532.65 1396.68L531.729 1397.1C529.574 1395.58 527.425 1394.06 525.28 1392.54L526.204 1392.12C525.668 1391.74 525.132 1391.35 524.597 1390.97L523.673 1391.4C521.532 1389.88 519.395 1388.35 517.264 1386.83L518.19 1386.41C517.658 1386.03 517.125 1385.65 516.594 1385.27L515.667 1385.69C513.538 1384.16 511.415 1382.64 509.297 1381.12L510.226 1380.7C509.697 1380.31 509.168 1379.93 508.64 1379.55L507.71 1379.97C505.594 1378.45 503.484 1376.92 501.38 1375.4L502.312 1374.98L501.35 1374.28L500.735 1373.83L499.802 1374.25C497.701 1372.73 495.604 1371.2 493.512 1369.67L494.448 1369.26C493.925 1368.88 493.403 1368.49 492.881 1368.11L491.945 1368.53C489.851 1367 487.763 1365.47 485.68 1363.93L486.618 1363.52C486.092 1363.13 485.566 1362.75 485.041 1362.36L484.102 1362.77C481.999 1361.22 479.901 1359.67 477.809 1358.12L478.75 1357.71C478.227 1357.33 477.705 1356.94 477.182 1356.55L476.241 1356.96C474.151 1355.41 472.067 1353.86 469.989 1352.31L470.933 1351.9C470.413 1351.51 469.894 1351.13 469.376 1350.74L468.431 1351.15C466.355 1349.6 464.285 1348.05 462.221 1346.49L463.167 1346.09C462.652 1345.7 462.136 1345.31 461.621 1344.92L460.673 1345.33C458.611 1343.78 456.555 1342.23 454.504 1340.67L455.454 1340.27C454.941 1339.88 454.429 1339.49 453.917 1339.1L452.967 1339.51C450.919 1337.96 448.876 1336.4 446.839 1334.85L447.792 1334.45C447.283 1334.06 446.774 1333.67 446.266 1333.28L445.312 1333.68C443.278 1332.13 441.249 1330.58 439.226 1329.02L440.182 1328.62C439.676 1328.23 439.171 1327.84 438.666 1327.46L437.71 1327.86C435.675 1326.29 433.646 1324.72 431.622 1323.16L432.581 1322.76C432.072 1322.37 431.563 1321.97 431.054 1321.58L430.095 1321.98C428.06 1320.4 426.03 1318.82 424.007 1317.24L424.968 1316.85C424.463 1316.45 423.957 1316.06 423.452 1315.66L422.49 1316.06C420.469 1314.48 418.454 1312.9 416.445 1311.32L417.41 1310.93C416.908 1310.54 416.406 1310.14 415.904 1309.75L414.939 1310.14C412.933 1308.56 410.932 1306.98 408.937 1305.4L409.905 1305.01C409.406 1304.62 408.908 1304.22 408.41 1303.83L407.442 1304.22C405.45 1302.64 403.464 1301.06 401.483 1299.48L402.454 1299.09C401.959 1298.69 401.464 1298.3 400.97 1297.91L399.999 1298.29C398.021 1296.71 396.05 1295.13 394.084 1293.55L395.057 1293.17L394.363 1292.61L393.584 1291.98L392.61 1292.37C390.647 1290.79 388.689 1289.21 386.738 1287.63L387.714 1287.24C387.226 1286.85 386.739 1286.45 386.252 1286.06L385.275 1286.44C383.299 1284.84 381.328 1283.23 379.364 1281.63L380.343 1281.25C379.851 1280.85 379.36 1280.45 378.87 1280.04L377.89 1280.43C375.927 1278.82 373.969 1277.22 372.018 1275.61L373 1275.23C372.512 1274.83 372.025 1274.43 371.538 1274.03L370.555 1274.41C368.607 1272.8 366.665 1271.2 364.728 1269.59L365.713 1269.21C365.229 1268.81 364.746 1268.41 364.263 1268.01L363.277 1268.39C361.344 1266.78 359.416 1265.17 357.495 1263.57L358.482 1263.19C358.002 1262.79 357.523 1262.39 357.043 1261.99L356.055 1262.36C354.137 1260.76 352.224 1259.15 350.318 1257.55L351.308 1257.17C350.832 1256.77 350.356 1256.37 349.88 1255.97L348.889 1256.34C346.986 1254.74 345.089 1253.13 343.197 1251.52L344.191 1251.15L343.598 1250.65L342.774 1249.95L341.78 1250.32C339.884 1248.71 337.995 1247.09 336.111 1245.48L337.107 1245.11C336.631 1244.71 336.155 1244.3 335.679 1243.89L334.682 1244.26C332.779 1242.63 330.882 1240.99 328.992 1239.36L329.991 1239C329.518 1238.59 329.046 1238.18 328.574 1237.77L327.575 1238.14C325.687 1236.51 323.806 1234.87 321.931 1233.24L322.933 1232.88C322.464 1232.47 321.996 1232.06 321.528 1231.66L320.526 1232.02C318.654 1230.39 316.788 1228.76 314.929 1227.12L315.934 1226.76L315.374 1226.27L314.541 1225.54L313.536 1225.9C311.68 1224.27 309.83 1222.64 307.986 1221.01L308.994 1220.65L308.392 1220.12L307.613 1219.43L306.605 1219.78C304.764 1218.15 302.93 1216.52 301.102 1214.89L302.113 1214.53C301.656 1214.13 301.2 1213.72 300.744 1213.31L299.733 1213.67C297.908 1212.04 296.09 1210.4 294.278 1208.77L295.291 1208.42C294.838 1208.01 294.386 1207.61 293.934 1207.2L292.92 1207.55C291.082 1205.89 289.251 1204.24 287.426 1202.58L288.442 1202.23L288.035 1201.86L287.074 1200.99L286.057 1201.34C284.234 1199.68 282.417 1198.02 280.606 1196.37L281.626 1196.02C281.173 1195.6 280.721 1195.19 280.27 1194.78L279.25 1195.12C277.443 1193.47 275.643 1191.81 273.849 1190.15L274.871 1189.81C274.423 1189.39 273.975 1188.98 273.527 1188.57L272.505 1188.91C270.714 1187.25 268.93 1185.6 267.153 1183.94L268.178 1183.6C267.734 1183.18 267.29 1182.77 266.847 1182.36L265.821 1182.7C264.047 1181.04 262.28 1179.39 260.519 1177.73L261.546 1177.39C261.106 1176.98 260.667 1176.56 260.228 1176.15L259.199 1176.49C257.442 1174.83 255.691 1173.18 253.947 1171.53L254.977 1171.19C254.541 1170.77 254.106 1170.36 253.671 1169.95L252.64 1170.28C250.882 1168.61 249.132 1166.95 247.388 1165.28L248.421 1164.94C247.982 1164.52 247.543 1164.1 247.104 1163.68L246.07 1164.01C244.315 1162.33 242.566 1160.65 240.825 1158.96L241.861 1158.63C241.426 1158.21 240.991 1157.79 240.556 1157.37L239.52 1157.7C237.782 1156.02 236.05 1154.34 234.326 1152.66L235.365 1152.33C234.934 1151.91 234.503 1151.49 234.073 1151.07L233.034 1151.4C231.313 1149.71 229.599 1148.03 227.892 1146.35L228.933 1146.03C228.507 1145.61 228.081 1145.19 227.655 1144.77L226.613 1145.09C224.909 1143.41 223.212 1141.73 221.522 1140.05L222.567 1139.73L222.058 1139.22L221.301 1138.47L220.256 1138.79C218.57 1137.12 216.891 1135.44 215.218 1133.76L216.265 1133.44C215.848 1133.02 215.43 1132.6 215.013 1132.18L213.965 1132.5C212.289 1130.82 210.619 1129.13 208.957 1127.45L210.007 1127.13C209.585 1126.7 209.164 1126.28 208.744 1125.85L207.693 1126.17C206.01 1124.46 204.334 1122.75 202.665 1121.04L203.719 1120.73C203.302 1120.3 202.885 1119.87 202.469 1119.45L201.415 1119.76C199.75 1118.05 198.093 1116.35 196.442 1114.64L197.498 1114.33C197.086 1113.9 196.674 1113.48 196.262 1113.05L195.206 1113.36C193.559 1111.66 191.919 1109.95 190.287 1108.25L191.346 1107.94L190.921 1107.5L190.123 1106.66L189.064 1106.97C187.436 1105.27 185.814 1103.56 184.2 1101.86L185.262 1101.56C184.858 1101.13 184.455 1100.71 184.053 1100.28L182.991 1100.59C181.38 1098.88 179.777 1097.18 178.181 1095.48L179.246 1095.18C178.847 1094.75 178.449 1094.33 178.051 1093.9L176.986 1094.21C175.391 1092.5 173.803 1090.8 172.222 1089.1L173.289 1088.8C172.887 1088.37 172.485 1087.93 172.084 1087.5L171.016 1087.8C169.411 1086.07 167.812 1084.33 166.222 1082.6L167.292 1082.31C166.894 1081.87 166.498 1081.44 166.101 1081.01L165.031 1081.3C163.444 1079.57 161.865 1077.84 160.294 1076.11L161.366 1075.82C160.974 1075.39 160.582 1074.96 160.19 1074.53L159.117 1074.82C157.549 1073.09 155.989 1071.36 154.437 1069.64L155.513 1069.34C155.125 1068.91 154.738 1068.48 154.351 1068.05L153.275 1068.34C151.726 1066.61 150.186 1064.89 148.653 1063.16L149.731 1062.88C149.348 1062.45 148.965 1062.01 148.583 1061.58L147.504 1061.87C145.975 1060.15 144.454 1058.42 142.94 1056.7L144.021 1056.42L143.639 1055.98L142.888 1055.13L141.806 1055.41C140.293 1053.68 138.787 1051.96 137.289 1050.23L138.373 1049.95C137.991 1049.51 137.611 1049.08 137.23 1048.64L136.146 1048.92C134.623 1047.16 133.109 1045.41 131.603 1043.65L132.689 1043.37C132.313 1042.94 131.937 1042.5 131.562 1042.06L130.474 1042.34C128.972 1040.58 127.478 1038.83 125.992 1037.08L127.082 1036.8L126.489 1036.11L125.969 1035.49L124.879 1035.77C123.397 1034.01 121.923 1032.27 120.457 1030.52L121.55 1030.25C121.183 1029.81 120.818 1029.37 120.452 1028.93L119.359 1029.21C117.898 1027.46 116.444 1025.71 114.998 1023.96L116.094 1023.7L115.574 1023.07L115.011 1022.39L113.916 1022.66C112.474 1020.91 111.041 1019.17 109.616 1017.42L110.714 1017.16C110.357 1016.72 110.002 1016.29 109.647 1015.85L108.548 1016.12C107.118 1014.36 105.696 1012.61 104.282 1010.86L105.383 1010.6C105.024 1010.15 104.665 1009.71 104.307 1009.27L103.206 1009.53C101.774 1007.75 100.35 1005.97 98.9349 1004.2L100.038 1003.94L99.796 1003.63L98.9793 1002.61L97.875 1002.86C96.4641 1001.09 95.062 999.315 93.6681 997.542L94.7744 997.288C94.4262 996.846 94.0785 996.403 93.7312 995.96L92.6243 996.213C91.2349 994.442 89.8539 992.671 88.4816 990.903L89.5907 990.652C89.2477 990.21 88.9053 989.768 88.5634 989.326L87.4538 989.576C86.0858 987.808 84.7264 986.041 83.3754 984.276L84.4873 984.029C84.1499 983.588 83.8129 983.147 83.4764 982.706L82.364 982.952C81.0174 981.187 79.6794 979.424 78.3501 977.663L79.4647 977.419C79.1327 976.979 78.801 976.539 78.4699 976.099L77.3548 976.342C76.0102 974.554 74.6743 972.769 73.3473 970.985L74.4648 970.745C74.1303 970.295 73.7964 969.846 73.4629 969.396L72.3449 969.635C71.0107 967.836 69.6858 966.039 68.3698 964.243L69.4899 964.007L68.9815 963.313L68.5053 962.661L67.3842 962.896C66.0728 961.101 64.7705 959.308 63.4772 957.516L64.6003 957.284C64.2771 956.836 63.9546 956.389 63.6324 955.941L62.5089 956.173C61.2201 954.382 59.9404 952.593 58.67 950.805L59.7958 950.577C59.4783 950.13 59.1613 949.684 58.8451 949.238L57.7189 949.465C56.453 947.678 55.196 945.893 53.9483 944.11L55.0767 943.886L54.6151 943.226L54.1432 942.55L53.0141 942.773C51.771 940.991 50.5372 939.21 49.3122 937.432L50.4434 937.211L50.1149 936.734C49.9148 936.443 49.7149 936.152 49.5155 935.862L48.3837 936.081C47.1328 934.259 45.8915 932.438 44.6599 930.619L45.7941 930.403C45.4862 929.949 45.1792 929.495 44.8726 929.04L43.7381 929.256C42.5113 927.438 41.294 925.622 40.0866 923.808L41.2234 923.596C40.9217 923.143 40.6206 922.69 40.3201 922.237L39.1829 922.448C37.9802 920.636 36.7873 918.825 35.6041 917.016L36.7436 916.808C36.4479 916.356 36.1529 915.904 35.8585 915.453L34.7184 915.66C33.54 913.852 32.3712 912.046 31.2122 910.242L32.3542 910.039L31.8089 909.189L31.4875 908.687L30.3446 908.89C29.1905 907.087 28.0459 905.286 26.9112 903.488L28.0563 903.288C27.7726 902.839 27.4899 902.39 27.2076 901.941L26.0621 902.139C24.9159 900.316 23.7796 898.494 22.6534 896.675L23.8009 896.48C23.5163 896.02 23.2323 895.56 22.9489 895.101L21.8005 895.295C20.6661 893.456 19.5422 891.619 18.4285 889.784L19.5791 889.593L19.2814 889.102L18.7462 888.218L17.5953 888.408C16.4867 886.574 15.3883 884.743 14.3005 882.914L15.4536 882.728C15.1818 882.271 14.9107 881.814 14.6403 881.357L13.4865 881.543C12.4037 879.715 11.3311 877.889 10.2691 876.066L11.4249 875.885L11.2702 875.619C11.0564 875.252 10.8433 874.885 10.6306 874.518L9.47453 874.699C8.41756 872.877 7.37082 871.058 6.33462 869.241L7.49312 869.064C7.23411 868.61 6.97592 868.156 6.71847 867.702L5.5595 867.878C4.52413 866.055 3.49929 864.234 2.48489 862.416L3.64595 862.244C3.38659 861.779 3.12785 861.314 2.86984 860.849L1.70831 861.021C0.675511 859.161 -0.346129 857.304 -1.35682 855.449L-0.193098 855.282C-0.445586 854.819 -0.697543 854.356 -0.948562 853.893L-2.11295 854.059C-3.11822 852.206 -4.11232 850.356 -5.09558 848.508L-3.92912 848.346C-4.17482 847.884 -4.41979 847.423 -4.66403 846.961L-5.83096 847.123C-6.8086 845.277 -7.77528 843.433 -8.73102 841.592L-7.56181 841.435C-7.80073 840.975 -8.03883 840.515 -8.27599 840.056L-9.44556 840.212C-10.3956 838.373 -11.3348 836.536 -12.2627 834.703L-11.0912 834.55C-11.3229 834.092 -11.5541 833.634 -11.7845 833.176L-12.9565 833.328C-13.879 831.496 -14.7906 829.666 -15.6909 827.839L-14.5168 827.692C-14.7463 827.227 -14.975 826.761 -15.2031 826.296L-16.3776 826.442C-17.2981 824.564 -18.207 822.689 -19.104 820.817L-17.9274 820.675L-18.1359 820.24L-18.5974 819.273L-19.7745 819.414C-20.6657 817.544 -21.545 815.677 -22.4125 813.813L-21.2332 813.676C-21.4501 813.211 -21.6659 812.745 -21.8812 812.28L-23.0609 812.416C-23.9226 810.553 -24.7725 808.694 -25.6105 806.838L-24.4286 806.707C-24.638 806.243 -24.8465 805.78 -25.0544 805.317L-26.2367 805.447C-27.0688 803.592 -27.889 801.741 -28.6974 799.893L-27.5132 799.768L-27.7032 799.333C-27.8415 799.016 -27.9794 798.7 -28.1168 798.383L-29.3015 798.508C-30.1039 796.662 -30.8945 794.819 -31.6733 792.979L-30.4868 792.859C-30.6844 792.392 -30.8815 791.925 -31.0776 791.458L-32.2649 791.577C-33.0609 789.684 -33.844 787.794 -34.6149 785.908L-33.4259 785.793C-33.6184 785.322 -33.8101 784.851 -34.0011 784.381L-35.1905 784.494C-35.9551 782.609 -36.7066 780.729 -37.4458 778.852L-36.2544 778.743C-36.439 778.274 -36.623 777.805 -36.8059 777.337L-37.9979 777.444C-38.7308 775.569 -39.4506 773.697 -40.1581 771.829L-38.9644 771.727C-39.1411 771.26 -39.317 770.794 -39.492 770.328L-40.6863 770.429C-41.3873 768.563 -42.0759 766.7 -42.7514 764.842L-41.5553 764.745L-41.7644 764.169L-42.0592 763.353L-43.2557 763.448C-43.9255 761.59 -44.5826 759.735 -45.2271 757.884L-44.029 757.794L-44.2403 757.185C-44.3352 756.912 -44.4298 756.639 -44.5238 756.366L-45.7226 756.454C-46.3798 754.549 -47.0232 752.649 -47.6532 750.752L-46.4528 750.668C-46.61 750.194 -46.7666 749.721 -46.9222 749.248L-48.1229 749.33C-48.746 747.436 -49.3556 745.545 -49.9515 743.659L-48.749 743.582C-48.845 743.278 -48.9406 742.974 -49.0357 742.671L-49.193 742.169L-50.3959 742.245C-50.9849 740.361 -51.5604 738.481 -52.1221 736.605L-50.9176 736.534C-51.058 736.066 -51.1973 735.598 -51.336 735.13L-52.541 735.199C-53.0959 733.325 -53.6373 731.456 -54.1648 729.591L-52.958 729.527L-53.1067 729.001L-53.3508 728.131L-54.5578 728.193C-55.0847 726.309 -55.5972 724.429 -56.096 722.553L-54.8877 722.496L-55.0649 721.828L-55.2662 721.063L-56.475 721.119C-56.9766 719.207 -57.4635 717.3 -57.9358 715.398L-56.7255 715.349C-56.7987 715.054 -56.8714 714.76 -56.9438 714.466L-57.0767 713.925L-58.2873 713.973C-58.7521 712.073 -59.2025 710.178 -59.6381 708.288L-58.4259 708.246C-58.5348 707.774 -58.6425 707.303 -58.7495 706.831L-59.9619 706.872C-60.39 704.984 -60.8037 703.102 -61.2023 701.224L-59.9887 701.189C-60.0881 700.72 -60.187 700.252 -60.2846 699.783L-61.4986 699.817C-61.8901 697.941 -62.2666 696.071 -62.6285 694.205L-61.4133 694.178C-61.5036 693.712 -61.5932 693.247 -61.6817 692.782L-62.8971 692.807C-63.262 690.89 -63.6112 688.978 -63.9447 687.072L-62.7278 687.053C-62.8115 686.575 -62.894 686.097 -62.9757 685.62L-64.1927 685.638C-64.5195 683.727 -64.8306 681.821 -65.1257 679.921L-63.9076 679.909C-63.9814 679.435 -64.054 678.961 -64.1258 678.487L-65.3441 678.496C-65.6314 676.599 -65.9029 674.707 -66.1584 672.82L-64.9392 672.817C-65.0029 672.346 -65.0658 671.876 -65.1275 671.405L-66.3471 671.406C-66.5947 669.523 -66.8263 667.645 -67.0421 665.772L-65.8218 665.778C-65.8757 665.31 -65.9286 664.843 -65.9806 664.376L-67.201 664.369C-67.4111 662.479 -67.605 660.594 -67.7824 658.716L-66.5612 658.729C-66.6066 658.25 -66.6507 657.771 -66.6939 657.292L-67.9153 657.276C-68.0881 655.359 -68.2441 653.447 -68.3829 651.542L-67.161 651.565C-67.1957 651.089 -67.2293 650.614 -67.2617 650.139L-68.4837 650.114C-68.6138 648.212 -68.7271 646.316 -68.8231 644.426L-67.6006 644.458C-67.6246 643.986 -67.6474 643.515 -67.6692 643.044L-68.8918 643.01C-68.9793 641.124 -69.0496 639.243 -69.1027 637.369L-67.8799 637.411C-67.8929 636.943 -67.9051 636.475 -67.9163 636.008L-69.1391 635.965C-69.1836 634.095 -69.211 632.23 -69.2212 630.372L-67.998 630.423L-68.0005 629.889C-68.0015 629.591 -68.0022 629.292 -68.0023 628.994L-69.2255 628.942C-69.2267 627.024 -69.2094 625.114 -69.1738 623.211L-67.951 623.272C-67.942 622.796 -67.9319 622.322 -67.9208 621.847L-69.1435 621.785C-69.0986 619.885 -69.0353 617.993 -68.9535 616.107L-67.7309 616.178C-67.7106 615.707 -67.689 615.237 -67.6663 614.767L-68.8887 614.694C-68.7975 612.812 -68.688 610.937 -68.5598 609.07L-67.3378 609.15L-67.2904 608.474L-67.2384 607.753L-68.4603 607.67C-68.3228 605.806 -68.1669 603.949 -67.9922 602.1L-66.7709 602.191C-66.7274 601.728 -66.6826 601.266 -66.6365 600.805L-67.8577 600.712C-67.6676 598.804 -67.4574 596.904 -67.2276 595.012L-66.0077 595.114C-65.9502 594.642 -65.8916 594.17 -65.8317 593.699L-67.0516 593.595C-66.8117 591.707 -66.5519 589.827 -66.2721 587.955L-65.0535 588.068C-64.9839 587.601 -64.9127 587.134 -64.8404 586.668L-66.0585 586.552C-65.7687 584.684 -65.4591 582.824 -65.1294 580.972L-63.9126 581.097C-63.8304 580.634 -63.7469 580.173 -63.662 579.712L-64.8783 579.585C-64.5386 577.737 -64.179 575.897 -63.799 574.065L-62.5844 574.202C-62.4896 573.745 -62.3936 573.288 -62.2963 572.832L-63.5102 572.693C-63.1079 570.808 -62.6842 568.931 -62.2389 567.063L-61.0272 567.211C-60.916 566.745 -60.8035 566.279 -60.6896 565.813L-61.9009 565.663C-61.4448 563.798 -60.9672 561.942 -60.468 560.096L-59.2594 560.256C-59.1347 559.795 -59.0088 559.335 -58.8815 558.875L-60.0895 558.713C-59.5796 556.87 -59.0484 555.037 -58.4954 553.213L-57.2902 553.386C-57.2197 553.154 -57.1487 552.922 -57.0775 552.689C-57.0094 552.467 -56.941 552.244 -56.8721 552.022L-58.0766 551.847C-57.5128 550.027 -56.9271 548.217 -56.3202 546.416L-55.1193 546.602C-54.9657 546.146 -54.8106 545.691 -54.6543 545.236L-55.8545 545.048C-55.2174 543.197 -54.5576 541.355 -53.8746 539.523L-52.6783 539.722C-52.5078 539.265 -52.3361 538.809 -52.1628 538.353L-53.3581 538.152C-52.6637 536.325 -51.9462 534.508 -51.2055 532.701L-50.0144 532.914C-49.8295 532.463 -49.6433 532.013 -49.4556 531.563L-50.6458 531.348C-49.8936 529.547 -49.1182 527.755 -48.3197 525.974L-47.1343 526.2C-46.935 525.755 -46.7345 525.312 -46.5324 524.868L-47.7165 524.64C-46.9034 522.857 -46.0666 521.084 -45.2066 519.321L-44.0278 519.561C-43.8081 519.111 -43.5869 518.662 -43.3642 518.213L-44.5414 517.97C-43.6485 516.171 -42.7313 514.383 -41.7892 512.606L-40.6178 512.86C-40.3829 512.417 -40.1463 511.974 -39.9083 511.532L-41.0782 511.275C-40.1239 509.504 -39.1449 507.743 -38.1413 505.994L-36.9778 506.263C-36.7274 505.826 -36.4756 505.391 -36.222 504.956L-37.3838 504.684C-36.3677 502.941 -35.3272 501.208 -34.2617 499.487L-33.107 499.77C-32.8412 499.341 -32.574 498.912 -32.3051 498.485L-33.4579 498.199C-32.366 496.461 -31.2489 494.735 -30.1061 493.02L-28.961 493.319C-28.6728 492.886 -28.3831 492.455 -28.0917 492.024L-29.2349 491.723C-28.0667 489.996 -26.8726 488.281 -25.6522 486.579L-24.5178 486.892C-24.2134 486.468 -23.9075 486.044 -23.5999 485.621L-24.7323 485.304C-23.499 483.608 -22.2396 481.923 -20.9539 480.252L-19.8306 480.58C-19.51 480.163 -19.1878 479.747 -18.8638 479.332L-19.9847 479C-18.686 477.334 -17.3611 475.681 -16.0099 474.04L-14.899 474.384C-14.5605 473.973 -14.2205 473.563 -13.8789 473.154L-14.9874 472.807C-13.5973 471.141 -12.1801 469.489 -10.7354 467.849L-9.63759 468.209C-9.27736 467.8 -8.91542 467.392 -8.55179 466.985L-9.64666 466.622C-8.18837 464.99 -6.70255 463.37 -5.18945 461.764L-4.10615 462.139C-3.72881 461.739 -3.34992 461.339 -2.96919 460.94L-4.04948 460.561C-2.52268 458.962 -0.968403 457.375 0.613445 455.802L1.68132 456.194C2.07571 455.801 2.47185 455.41 2.86962 455.019L1.80481 454.625C3.40819 453.051 5.03934 451.491 6.69841 449.944L7.75038 450.351C8.16709 449.962 8.58566 449.575 9.00597 449.188L7.95744 448.778C9.64314 447.227 11.357 445.689 13.0994 444.166L14.1337 444.589C14.5682 444.209 15.0044 443.83 15.4422 443.452L14.4115 443.026C16.1679 441.51 17.9527 440.008 19.766 438.52L20.782 438.959C21.234 438.588 21.6877 438.218 22.1433 437.848L21.1313 437.407C22.9588 435.927 24.8147 434.46 26.6991 433.009L27.6957 433.462C28.1658 433.1 28.6378 432.738 29.1117 432.378L28.1192 431.921C30.0277 430.469 31.9648 429.032 33.9309 427.609L34.9071 428.078C35.3974 427.723 35.8892 427.37 36.383 427.017L35.411 426.545C37.3917 425.13 39.4012 423.729 41.4397 422.344L42.3943 422.828C42.9025 422.482 43.4124 422.138 43.9241 421.794L42.9738 421.307C45.0268 419.929 47.1088 418.566 49.2197 417.218L50.152 417.717C50.6782 417.381 51.2062 417.046 51.7361 416.712L50.8084 416.21C52.9308 414.871 55.0825 413.548 57.2629 412.24L58.1718 412.753C58.7144 412.427 59.2589 412.103 59.8051 411.779L58.9009 411.263C61.0921 409.965 63.3125 408.682 65.5618 407.414L66.4466 407.941C67.0076 407.625 67.5699 407.309 68.1342 406.995L67.2543 406.466C69.5181 405.205 71.8109 403.961 74.1329 402.731L74.993 403.272C75.5719 402.965 76.1526 402.66 76.7349 402.355L75.88 401.812C78.2167 400.591 80.5823 399.384 82.9772 398.194L83.8117 398.748L84.2257 398.542L84.7086 398.303L85.2171 398.053L85.6073 397.861L84.778 397.305C87.1859 396.123 89.6165 394.96 92.0694 393.816L92.8774 394.382C93.489 394.097 94.1017 393.813 94.7159 393.53L93.9132 392.962C96.3773 391.827 98.8637 390.711 101.372 389.614L102.154 390.193C102.779 389.92 103.406 389.647 104.034 389.376L103.258 388.795C105.778 387.708 108.32 386.639 110.883 385.589L111.637 386.179C112.276 385.917 112.916 385.657 113.558 385.397L112.81 384.805C115.389 383.762 117.989 382.739 120.612 381.734L121.337 382.335C121.992 382.084 122.648 381.835 123.305 381.586L122.586 380.983C125.223 379.985 127.881 379.007 130.561 378.048L131.258 378.66C131.926 378.42 132.596 378.182 133.266 377.945L132.575 377.331C135.266 376.381 137.979 375.45 140.712 374.536L141.38 375.158C142.061 374.931 142.744 374.704 143.428 374.479L142.766 373.855C145.51 372.951 148.275 372.066 151.061 371.2L151.699 371.831C152.391 371.616 153.084 371.402 153.778 371.189L153.146 370.556C155.928 369.703 158.73 368.868 161.554 368.052L162.162 368.692C162.866 368.489 163.571 368.286 164.278 368.085L163.675 367.443C166.508 366.636 169.361 365.847 172.235 365.076L172.815 365.725C173.531 365.533 174.249 365.342 174.968 365.152L174.394 364.502C177.278 363.74 180.182 362.997 183.106 362.271L183.655 362.928C184.384 362.747 185.115 362.567 185.846 362.389L185.302 361.731C188.214 361.02 191.145 360.327 194.096 359.652L194.616 360.315L195.353 360.147C195.84 360.036 196.328 359.926 196.816 359.816L196.301 359.151C199.247 358.488 202.211 357.842 205.195 357.215L205.686 357.884L206.253 357.765C206.808 357.649 207.364 357.533 207.921 357.418L207.436 356.747C210.429 356.128 213.44 355.526 216.47 354.942L216.932 355.618C217.688 355.472 218.444 355.328 219.202 355.184L218.746 354.507C221.786 353.932 224.844 353.374 227.92 352.834L228.353 353.515C229.109 353.382 229.866 353.25 230.624 353.119L230.197 352.437C233.225 351.915 236.271 351.41 239.334 350.921L239.738 351.607C240.502 351.485 241.267 351.364 242.033 351.245L241.634 350.558C244.706 350.078 247.795 349.614 250.902 349.167L251.278 349.857C252.052 349.746 252.828 349.636 253.605 349.526L253.234 348.835C256.349 348.397 259.481 347.975 262.63 347.57L262.978 348.263C263.764 348.162 264.55 348.062 265.337 347.963L264.995 347.269C268.118 346.876 271.258 346.499 274.414 346.139L274.735 346.836C275.512 346.747 276.29 346.659 277.07 346.573L276.754 345.875C279.878 345.527 283.017 345.195 286.172 344.878L286.466 345.578C287.253 345.499 288.041 345.421 288.83 345.344L288.541 344.644C291.704 344.335 294.883 344.042 298.077 343.765L298.345 344.467C299.141 344.398 299.939 344.33 300.738 344.263L300.475 343.56C303.676 343.291 306.894 343.037 310.126 342.798L310.368 343.503C311.174 343.443 311.981 343.385 312.789 343.327L312.552 342.623C315.717 342.397 318.895 342.187 322.088 341.992L322.305 342.698C323.099 342.649 323.893 342.602 324.688 342.555L324.476 341.848C327.663 341.661 330.865 341.488 334.081 341.33L334.274 342.038C335.076 341.998 335.879 341.96 336.683 341.922L336.495 341.214C339.717 341.064 342.954 340.927 346.204 340.806L346.373 341.514C347.184 341.484 347.996 341.455 348.808 341.426L348.644 340.717C351.901 340.603 355.172 340.503 358.456 340.418L358.601 341.127C359.407 341.107 360.214 341.086 361.022 341.067L360.882 340.358C364.075 340.282 367.281 340.22 370.499 340.171L370.621 340.881C371.424 340.869 372.228 340.858 373.033 340.848L372.915 340.138C376.139 340.096 379.376 340.068 382.625 340.054L382.726 340.764C383.537 340.76 384.348 340.757 385.161 340.755L385.065 340.045C388.32 340.037 391.588 340.043 394.868 340.063L394.946 340.773C395.765 340.777 396.584 340.783 397.404 340.79L397.33 340.08C400.614 340.106 403.91 340.145 407.218 340.198L407.276 340.908C408.076 340.921 408.876 340.935 409.678 340.949L409.625 340.239C412.836 340.297 416.059 340.367 419.293 340.45L419.33 341.16C420.137 341.18 420.945 341.202 421.753 341.224L421.72 340.515C424.959 340.604 428.209 340.706 431.47 340.82L431.488 341.529C432.302 341.557 433.116 341.587 433.931 341.617L433.918 340.908C437.185 341.029 440.462 341.162 443.75 341.308L443.747 342.016C444.568 342.052 445.39 342.089 446.211 342.127L446.217 341.419C449.511 341.571 452.815 341.735 456.129 341.912L456.108 342.619C456.909 342.662 457.712 342.706 458.514 342.75L458.54 342.043C461.752 342.22 464.973 342.409 468.205 342.609L468.165 343.315C468.972 343.365 469.779 343.415 470.587 343.467L470.63 342.761C473.867 342.967 477.113 343.185 480.368 343.414L480.311 344.118L481.573 344.208L482.75 344.292L482.811 343.588C486.071 343.823 489.341 344.069 492.62 344.327L492.545 345.031L493.506 345.107L495.003 345.226L495.081 344.523C498.365 344.787 501.658 345.062 504.96 345.349L504.868 346.051C505.688 346.122 506.508 346.194 507.328 346.267L507.424 345.565C510.622 345.848 513.83 346.142 517.045 346.446L516.937 347.147C517.74 347.223 518.543 347.299 519.347 347.377L519.459 346.676C522.678 346.986 525.907 347.307 529.143 347.638L529.019 348.337C529.827 348.42 530.636 348.503 531.445 348.587L531.572 347.888C534.813 348.225 538.062 348.572 541.319 348.93L541.179 349.627C541.992 349.716 542.806 349.806 543.62 349.897L543.763 349.2C547.025 349.563 550.294 349.937 553.571 350.321L553.416 351.017L554.497 351.144C554.955 351.198 555.414 351.252 555.872 351.307L556.031 350.612C559.24 350.993 562.457 351.384 565.682 351.785L565.511 352.479C566.308 352.578 567.105 352.678 567.902 352.778L568.075 352.085C571.268 352.487 574.469 352.899 577.677 353.32L577.492 354.012C578.293 354.118 579.095 354.223 579.897 354.33L580.084 353.638C583.295 354.065 586.514 354.501 589.74 354.948L589.541 355.638C590.347 355.749 591.153 355.861 591.959 355.974L592.16 355.284C595.389 355.735 598.626 356.196 601.869 356.667L601.657 357.355C602.467 357.473 603.277 357.591 604.088 357.71L604.302 357.022C607.536 357.496 610.777 357.979 614.025 358.472L613.799 359.158C614.588 359.278 615.376 359.398 616.165 359.519L616.393 358.833C619.552 359.317 622.718 359.81 625.89 360.312L625.652 360.996C626.443 361.122 627.236 361.248 628.029 361.374L628.27 360.69C631.445 361.197 634.626 361.713 637.814 362.237L637.563 362.92C638.359 363.051 639.155 363.182 639.952 363.314L640.205 362.633C643.396 363.162 646.592 363.7 649.795 364.248L649.532 364.928C650.331 365.064 651.132 365.202 651.932 365.34L652.198 364.66C655.404 365.212 658.615 365.773 661.833 366.343L661.557 367.021L662.802 367.242L663.969 367.45L664.247 366.772C667.404 367.335 670.566 367.907 673.733 368.487L673.446 369.163C674.228 369.306 675.01 369.45 675.793 369.594L676.082 368.919C679.216 369.496 682.355 370.083 685.5 370.677L685.201 371.351C685.986 371.499 686.772 371.648 687.558 371.798L687.859 371.125C691.006 371.724 694.159 372.331 697.316 372.946L697.006 373.618C697.795 373.772 698.584 373.926 699.373 374.081L699.685 373.41C702.846 374.029 706.011 374.657 709.182 375.294L708.861 375.963C709.652 376.122 710.445 376.282 711.237 376.442L711.561 375.773C714.734 376.414 717.912 377.062 721.095 377.72L720.763 378.387C721.558 378.551 722.354 378.716 723.149 378.881L723.483 378.214C726.576 378.856 729.673 379.506 732.774 380.164L732.432 380.829C733.206 380.993 733.98 381.157 734.754 381.322L735.099 380.658C738.2 381.319 741.305 381.988 744.415 382.664L744.062 383.327C744.839 383.496 745.616 383.665 746.393 383.835L746.748 383.173C749.86 383.853 752.977 384.541 756.098 385.237L755.735 385.898C756.515 386.071 757.294 386.246 758.074 386.42L758.439 385.76C761.562 386.46 764.69 387.167 767.822 387.882L767.449 388.541L768.081 388.685C768.652 388.816 769.225 388.947 769.797 389.078L770.171 388.42C773.305 389.139 776.444 389.866 779.586 390.6L779.204 391.256C779.979 391.437 780.754 391.619 781.529 391.801L781.913 391.145C784.966 391.862 788.022 392.586 791.082 393.317L790.691 393.971C791.455 394.153 792.22 394.336 792.985 394.52L793.378 393.866C796.441 394.601 799.507 395.343 802.577 396.092L802.176 396.743C802.943 396.931 803.71 397.118 804.478 397.306L804.88 396.655C807.952 397.408 811.028 398.167 814.107 398.935L813.697 399.584C814.467 399.775 815.236 399.968 816.006 400.16L816.417 399.511C819.498 400.282 822.584 401.06 825.672 401.844L825.253 402.491C826.025 402.688 826.796 402.884 827.568 403.081L827.989 402.434C831.079 403.223 834.173 404.019 837.271 404.821L836.843 405.466C837.61 405.665 838.378 405.864 839.146 406.064L839.575 405.42C842.587 406.203 845.603 406.994 848.621 407.791L848.185 408.434C848.939 408.633 849.693 408.832 850.448 409.032L850.885 408.39C853.905 409.19 856.929 409.997 859.955 410.811L859.511 411.452C860.267 411.655 861.024 411.859 861.78 412.063L862.226 411.423C865.254 412.24 868.285 413.064 871.32 413.894L870.867 414.533L871.813 414.792L873.142 415.156L873.596 414.518C876.632 415.352 879.671 416.193 882.713 417.04L882.252 417.676C883.012 417.888 883.772 418.1 884.532 418.312L884.994 417.677C888.038 418.527 891.084 419.384 894.133 420.248L893.665 420.882C894.427 421.097 895.189 421.314 895.951 421.53L896.421 420.897C899.402 421.744 902.385 422.597 905.371 423.457L904.895 424.089C905.638 424.303 906.381 424.517 907.124 424.732L907.602 424.101C910.577 424.96 913.555 425.826 916.536 426.697L916.052 427.327C916.797 427.545 917.541 427.763 918.286 427.981L918.772 427.352C921.754 428.227 924.738 429.109 927.725 429.996L927.234 430.623C927.98 430.845 928.726 431.067 929.473 431.289L929.965 430.663C932.954 431.553 935.945 432.45 938.938 433.353L938.439 433.978C939.187 434.203 939.935 434.429 940.683 434.656L941.183 434.031C944.177 434.937 947.174 435.849 950.173 436.768L949.667 437.39L950.741 437.719L951.916 438.08L952.423 437.458C955.389 438.368 958.356 439.285 961.326 440.208L960.813 440.829L961.746 441.118L963.008 441.511L963.523 440.891C966.451 441.804 969.382 442.722 972.315 443.646L971.795 444.265C972.528 444.496 973.261 444.727 973.994 444.958L974.515 444.341C977.449 445.268 980.385 446.201 983.324 447.139L982.797 447.755C983.531 447.99 984.265 448.225 984.999 448.46L985.528 447.844C988.467 448.786 991.408 449.733 994.351 450.687L993.817 451.301C994.553 451.539 995.288 451.777 996.024 452.016L996.559 451.402C999.503 452.358 1002.45 453.32 1005.4 454.288L1004.86 454.9C1005.59 455.142 1006.33 455.384 1007.07 455.626L1007.61 455.015C1010.56 455.985 1013.51 456.962 1016.46 457.944L1015.91 458.553C1016.64 458.796 1017.37 459.038 1018.1 459.281L1018.65 458.672C1021.53 459.633 1024.41 460.599 1027.3 461.571L1026.74 462.178C1027.46 462.421 1028.18 462.664 1028.91 462.907L1029.46 462.3C1032.35 463.275 1035.23 464.255 1038.12 465.24L1037.56 465.845C1038.28 466.091 1039 466.338 1039.73 466.585L1040.29 465.98C1043.18 466.968 1046.07 467.961 1048.96 468.96L1048.39 469.563L1049.32 469.883L1050.56 470.313L1051.13 469.71C1054.02 470.711 1056.92 471.718 1059.81 472.731L1059.24 473.332L1060.22 473.674L1061.41 474.092L1061.99 473.491C1064.88 474.506 1067.78 475.526 1070.68 476.552L1070.1 477.151C1070.83 477.407 1071.55 477.664 1072.28 477.921L1072.86 477.323C1075.73 478.342 1078.61 479.367 1081.49 480.397L1080.9 480.993C1081.61 481.247 1082.32 481.501 1083.03 481.755L1083.61 481.159C1086.45 482.176 1089.29 483.199 1092.13 484.226L1091.54 484.821C1092.24 485.078 1092.95 485.335 1093.66 485.592L1094.25 484.998C1097.09 486.028 1099.93 487.064 1102.78 488.104L1102.18 488.697C1102.89 488.957 1103.6 489.217 1104.31 489.478L1104.91 488.885C1107.75 489.928 1110.59 490.976 1113.44 492.03L1112.84 492.62C1113.55 492.883 1114.26 493.147 1114.97 493.41L1115.57 492.82C1118.42 493.876 1121.26 494.937 1124.11 496.002L1123.5 496.591L1124.2 496.853L1125.64 497.391L1126.24 496.803C1129.09 497.871 1131.94 498.944 1134.79 500.023L1134.18 500.609C1134.89 500.878 1135.6 501.148 1136.31 501.418L1136.93 500.833C1139.73 501.896 1142.54 502.965 1145.34 504.039L1144.73 504.623C1145.42 504.889 1146.12 505.156 1146.82 505.423L1147.44 504.84C1150.23 505.909 1153.02 506.982 1155.81 508.061L1155.18 508.643C1155.88 508.913 1156.58 509.183 1157.28 509.453L1157.9 508.871C1160.69 509.952 1163.48 511.038 1166.28 512.129L1165.65 512.708C1166.34 512.981 1167.04 513.254 1167.74 513.527L1168.37 512.947C1171.16 514.04 1173.96 515.138 1176.75 516.241L1176.12 516.818C1176.82 517.094 1177.51 517.37 1178.21 517.646L1178.85 517.068C1181.64 518.173 1184.44 519.283 1187.24 520.397L1186.6 520.973L1187.12 521.183L1188.69 521.809L1189.33 521.234C1192.13 522.351 1194.93 523.472 1197.72 524.598L1197.08 525.172L1198.07 525.571L1199.18 526.017L1199.82 525.444C1202.57 526.552 1205.32 527.664 1208.06 528.781L1207.41 529.352C1208.1 529.63 1208.78 529.909 1209.47 530.188L1210.12 529.617C1212.86 530.733 1215.6 531.854 1218.34 532.979L1217.69 533.549C1218.37 533.83 1219.06 534.111 1219.74 534.393L1220.4 533.824C1223.14 534.951 1225.88 536.083 1228.62 537.22L1227.96 537.787C1228.65 538.071 1229.34 538.356 1230.02 538.64L1230.68 538.073C1233.42 539.212 1236.17 540.355 1238.91 541.503L1238.25 542.068C1238.93 542.355 1239.62 542.642 1240.3 542.929L1240.97 542.364C1243.71 543.514 1246.46 544.669 1249.2 545.828L1248.53 546.391C1249.22 546.681 1249.9 546.97 1250.59 547.261L1251.26 546.698C1254 547.859 1256.75 549.024 1259.49 550.194L1258.82 550.756C1259.51 551.048 1260.19 551.341 1260.88 551.634L1261.55 551.073C1264.25 552.224 1266.95 553.379 1269.64 554.539L1268.96 555.098C1269.63 555.388 1270.31 555.677 1270.98 555.967L1271.66 555.408C1274.35 556.568 1277.04 557.732 1279.73 558.9L1279.05 559.457L1279.85 559.805L1281.07 560.333L1281.75 559.777C1284.44 560.947 1287.14 562.121 1289.83 563.3L1289.14 563.855C1289.81 564.15 1290.48 564.445 1291.16 564.74L1291.85 564.185C1294.54 565.366 1297.23 566.551 1299.92 567.74L1299.23 568.293L1300.07 568.667L1301.24 569.186L1301.94 568.633C1304.63 569.824 1307.32 571.02 1310.01 572.22L1309.32 572.771C1309.99 573.071 1310.66 573.371 1311.33 573.671L1312.03 573.12C1314.72 574.322 1317.42 575.528 1320.11 576.739L1319.41 577.288C1320.08 577.59 1320.75 577.893 1321.42 578.196L1322.13 577.647C1324.78 578.842 1327.43 580.041 1330.08 581.244L1329.38 581.791C1330.04 582.091 1330.7 582.39 1331.36 582.69L1332.07 582.143C1334.71 583.343 1337.35 584.547 1339.99 585.754L1339.28 586.3L1340.13 586.69L1341.25 587.206L1341.97 586.661C1344.61 587.871 1347.25 589.085 1349.89 590.302L1349.17 590.845C1349.83 591.15 1350.49 591.454 1351.15 591.759L1351.87 591.216C1354.51 592.436 1357.15 593.66 1359.79 594.888L1359.07 595.429C1359.72 595.736 1360.38 596.043 1361.04 596.35L1361.77 595.809C1364.4 597.039 1367.04 598.273 1369.68 599.51L1368.96 600.05L1369.56 600.333L1370.93 600.978L1371.66 600.439C1374.3 601.679 1376.94 602.923 1379.57 604.171L1378.85 604.708C1379.5 605.019 1380.16 605.331 1380.82 605.644L1381.55 605.107C1384.17 606.346 1386.78 607.589 1389.4 608.835L1388.66 609.37C1389.31 609.679 1389.96 609.988 1390.6 610.297L1391.34 609.762C1393.93 610.999 1396.52 612.24 1399.11 613.485L1398.37 614.018L1399.17 614.402L1400.31 614.952L1401.05 614.419C1403.64 615.666 1406.22 616.916 1408.81 618.17L1408.07 618.701C1408.72 619.014 1409.36 619.328 1410.01 619.642L1410.75 619.111C1413.34 620.367 1415.93 621.627 1418.51 622.891L1417.77 623.42C1418.41 623.735 1419.06 624.051 1419.71 624.368L1420.45 623.839C1423.04 625.105 1425.62 626.374 1428.21 627.647L1427.46 628.174L1427.89 628.386L1429.4 629.129L1430.15 628.602C1432.73 629.877 1435.32 631.156 1437.9 632.438L1437.15 632.963C1437.79 633.283 1438.44 633.604 1439.08 633.925L1439.84 633.401C1442.42 634.684 1445 635.97 1447.58 637.261L1446.82 637.784L1447.4 638.076L1448.72 638.736L1449.48 638.214C1452.02 639.486 1454.56 640.761 1457.09 642.04L1456.33 642.561C1456.97 642.881 1457.6 643.201 1458.23 643.521L1459 643C1461.53 644.281 1464.07 645.566 1466.6 646.854L1465.84 647.373C1466.47 647.695 1467.11 648.017 1467.74 648.339L1468.51 647.821C1471.04 649.111 1473.57 650.404 1476.11 651.701L1475.34 652.218L1476.15 652.633L1477.24 653.191L1478.01 652.675C1480.54 653.974 1483.07 655.276 1485.6 656.582L1484.83 657.097C1485.46 657.423 1486.09 657.75 1486.73 658.077L1487.5 657.562C1490.03 658.87 1492.56 660.181 1495.09 661.496L1494.31 662.009C1494.95 662.338 1495.58 662.667 1496.21 662.996L1496.99 662.483C1499.52 663.8 1502.04 665.12 1504.57 666.444L1503.79 666.955C1504.42 667.286 1505.05 667.617 1505.68 667.948L1506.47 667.437C1508.96 668.747 1511.46 670.06 1513.95 671.377L1513.17 671.886C1513.79 672.214 1514.41 672.542 1515.03 672.87L1515.82 672.361C1518.3 673.675 1520.78 674.991 1523.27 676.311L1522.48 676.818C1523.1 677.148 1523.72 677.478 1524.34 677.809L1525.13 677.302C1527.61 678.624 1530.09 679.949 1532.57 681.277L1531.78 681.782C1532.4 682.114 1533.02 682.447 1533.64 682.779L1534.43 682.275C1536.91 683.605 1539.39 684.938 1541.87 686.276L1541.07 686.779C1541.69 687.113 1542.31 687.447 1542.93 687.782L1543.72 687.279C1546.2 688.618 1548.68 689.96 1551.15 691.305L1550.35 691.807C1550.97 692.143 1551.59 692.479 1552.21 692.816L1553.01 692.315C1555.48 693.663 1557.95 695.013 1560.43 696.367L1559.62 696.866C1560.24 697.205 1560.86 697.543 1561.47 697.882L1562.28 697.383C1564.75 698.738 1567.22 700.095 1569.68 701.456L1568.88 701.954C1569.48 702.289 1570.09 702.624 1570.7 702.96L1571.51 702.464C1573.94 703.807 1576.37 705.154 1578.8 706.505L1577.99 707C1578.59 707.337 1579.2 707.675 1579.81 708.012L1580.62 707.518C1583.05 708.87 1585.48 710.225 1587.9 711.583L1587.09 712.076C1587.69 712.416 1588.3 712.755 1588.91 713.095L1589.72 712.602C1592.15 713.962 1594.57 715.326 1597 716.692L1596.18 717.183C1596.78 717.525 1597.39 717.866 1597.99 718.208L1598.81 717.717C1601.24 719.085 1603.66 720.457 1606.08 721.831L1605.26 722.32C1605.86 722.664 1606.46 723.007 1607.07 723.351L1607.89 722.863C1610.31 724.239 1612.73 725.618 1615.15 727.001L1614.32 727.488C1614.93 727.833 1615.53 728.179 1616.13 728.525L1616.96 728.038C1619.37 729.422 1621.79 730.81 1624.2 732.2L1623.37 732.685C1623.98 733.033 1624.58 733.381 1625.18 733.728L1626.01 733.244C1628.41 734.626 1630.8 736.012 1633.2 737.4L1632.36 737.883C1632.96 738.228 1633.55 738.573 1634.15 738.918L1634.98 738.435C1637.35 739.815 1639.73 741.199 1642.1 742.585L1641.26 743.066C1641.86 743.413 1642.45 743.76 1643.04 744.106L1643.88 743.626C1646.25 745.014 1648.62 746.405 1650.99 747.799L1650.15 748.278C1650.74 748.627 1651.34 748.976 1651.93 749.324L1652.77 748.846C1655.14 750.241 1657.5 751.64 1659.87 753.042L1659.03 753.519C1659.62 753.87 1660.21 754.22 1660.8 754.571L1661.64 754.094C1664.01 755.498 1666.37 756.904 1668.73 758.314L1667.89 758.789C1668.48 759.142 1669.07 759.494 1669.66 759.847L1670.5 759.372C1672.86 760.783 1675.22 762.197 1677.58 763.615L1676.73 764.088C1677.32 764.442 1677.91 764.796 1678.5 765.151L1679.35 764.678C1681.71 766.097 1684.06 767.519 1686.42 768.944L1685.56 769.415C1686.15 769.771 1686.74 770.127 1687.33 770.484L1688.18 770.013C1690.51 771.424 1692.83 772.838 1695.16 774.255L1694.3 774.724C1694.88 775.077 1695.46 775.431 1696.04 775.784L1696.9 775.315C1699.22 776.73 1701.53 778.148 1703.85 779.569L1702.99 780.036C1703.57 780.391 1704.15 780.747 1704.72 781.102L1705.58 780.635C1707.9 782.058 1710.21 783.483 1712.52 784.911L1711.66 785.376C1712.24 785.733 1712.81 786.09 1713.39 786.447L1714.25 785.983C1716.56 787.412 1718.87 788.845 1721.18 790.28L1720.31 790.744C1720.89 791.102 1721.47 791.461 1722.04 791.82L1722.91 791.358C1725.21 792.795 1727.52 794.234 1729.82 795.677L1728.95 796.138C1729.53 796.499 1730.1 796.86 1730.68 797.221L1731.55 796.76C1733.85 798.204 1736.15 799.651 1738.44 801.101L1737.57 801.561C1738.15 801.923 1738.72 802.286 1739.3 802.648L1740.17 802.19C1742.46 803.641 1744.76 805.096 1747.05 806.553L1746.18 807.01C1746.75 807.374 1747.32 807.738 1747.9 808.102L1748.77 807.645C1751.03 809.086 1753.3 810.529 1755.56 811.975L1754.68 812.43C1755.24 812.792 1755.81 813.153 1756.37 813.515L1757.25 813.06C1759.51 814.508 1761.77 815.958 1764.02 817.412L1763.14 817.865C1763.71 818.228 1764.27 818.591 1764.83 818.955L1765.72 818.502C1767.97 819.957 1770.22 821.414 1772.48 822.875L1771.59 823.326C1772.15 823.691 1772.72 824.056 1773.28 824.421L1774.16 823.97C1776.41 825.432 1778.66 826.896 1780.91 828.364L1780.02 828.813C1780.58 829.179 1781.14 829.546 1781.71 829.913L1782.59 829.465C1784.84 830.933 1787.08 832.405 1789.32 833.879L1788.43 834.326C1788.99 834.694 1789.55 835.063 1790.11 835.432L1791 834.985C1793.25 836.461 1795.48 837.939 1797.72 839.42L1796.83 839.865C1797.39 840.235 1797.95 840.606 1798.5 840.976L1799.4 840.532C1801.63 842.014 1803.87 843.499 1806.1 844.987L1805.2 845.43L1806.04 845.988L1806.88 846.546L1807.77 846.103C1810 847.592 1812.23 849.082 1814.45 850.572L1813.55 851.013C1814.1 851.386 1814.66 851.758 1815.21 852.131L1816.11 851.69C1818.33 853.181 1820.54 854.673 1822.75 856.165L1821.85 856.604C1822.4 856.976 1822.95 857.349 1823.5 857.722L1824.4 857.284C1826.61 858.776 1828.81 860.269 1831 861.763L1830.1 862.2C1830.65 862.573 1831.19 862.947 1831.74 863.32L1832.65 862.884C1834.84 864.378 1837.03 865.873 1839.21 867.368L1838.3 867.803C1838.85 868.177 1839.39 868.55 1839.94 868.924L1840.84 868.49C1843.02 869.985 1845.2 871.482 1847.37 872.979L1846.46 873.412C1847 873.786 1847.54 874.16 1848.08 874.534L1848.99 874.102C1851.16 875.599 1853.32 877.097 1855.48 878.596L1854.56 879.026C1855.1 879.401 1855.64 879.775 1856.18 880.15L1857.09 879.72C1859.25 881.218 1861.4 882.718 1863.54 884.218L1862.62 884.647C1863.16 885.026 1863.71 885.405 1864.25 885.784L1865.16 885.356C1867.33 886.875 1869.5 888.395 1871.65 889.915L1870.73 890.342C1871.27 890.722 1871.81 891.102 1872.35 891.482L1873.27 891.056C1875.43 892.576 1877.57 894.098 1879.72 895.62L1878.8 896.044C1879.33 896.424 1879.87 896.805 1880.4 897.185L1881.33 896.761C1883.47 898.283 1885.6 899.806 1887.74 901.329L1886.81 901.751C1887.34 902.132 1887.87 902.513 1888.41 902.893L1889.33 902.471C1891.46 903.995 1893.58 905.519 1895.7 907.044L1894.77 907.464C1895.3 907.845 1895.83 908.226 1896.36 908.607L1897.29 908.187C1899.41 909.712 1901.51 911.237 1903.62 912.763L1902.69 913.181C1903.21 913.562 1903.74 913.943 1904.26 914.325L1905.2 913.907C1907.3 915.433 1909.4 916.96 1911.49 918.486L1910.55 918.902C1911.07 919.284 1911.6 919.666 1912.12 920.047L1913.05 919.632C1915.15 921.163 1917.24 922.694 1919.32 924.226L1918.38 924.639C1918.91 925.026 1919.43 925.413 1919.96 925.8L1920.9 925.387C1923 926.936 1925.1 928.485 1927.19 930.035L1926.25 930.446C1926.77 930.834 1927.29 931.221 1927.82 931.608L1928.76 931.197C1930.85 932.747 1932.93 934.297 1935.01 935.848L1934.07 936.257C1934.59 936.645 1935.1 937.033 1935.62 937.42L1936.57 937.011C1938.64 938.562 1940.71 940.114 1942.78 941.665L1941.83 942.072C1942.35 942.46 1942.86 942.848 1943.38 943.236L1944.33 942.829C1946.39 944.381 1948.44 945.933 1950.5 947.486L1949.55 947.891C1950.06 948.279 1950.57 948.667 1951.08 949.055L1952.03 948.651C1954.08 950.203 1956.12 951.757 1958.16 953.31L1957.21 953.713L1958.1 954.391L1958.73 954.878L1959.69 954.475C1961.72 956.029 1963.75 957.583 1965.77 959.137L1964.82 959.538C1965.32 959.926 1965.83 960.315 1966.33 960.703L1967.29 960.303C1969.32 961.869 1971.35 963.435 1973.38 965.001L1972.42 965.399C1972.93 965.793 1973.44 966.187 1973.95 966.582L1974.9 966.184C1976.94 967.761 1978.97 969.339 1980.99 970.917L1980.03 971.313C1980.54 971.708 1981.04 972.102 1981.55 972.496L1982.51 972.101C1984.53 973.679 1986.54 975.257 1988.55 976.836L1987.59 977.23C1988.09 977.624 1988.59 978.019 1989.09 978.413L1990.06 978.02C1992.07 979.599 1994.07 981.178 1996.06 982.757L1995.09 983.149C1995.59 983.543 1996.09 983.938 1996.59 984.333L1997.56 983.942C1999.55 985.521 2001.54 987.101 2003.52 988.681L2002.55 989.07C2003.04 989.465 2003.54 989.86 2004.03 990.254L2005 989.866C2006.98 991.446 2008.95 993.026 2010.92 994.606L2009.94 994.993L2010.56 995.493L2011.42 996.178L2012.39 995.791C2014.35 997.372 2016.31 998.953 2018.26 1000.53L2017.29 1000.92C2017.77 1001.31 2018.26 1001.71 2018.75 1002.1L2019.72 1001.72C2021.7 1003.32 2023.67 1004.93 2025.64 1006.53L2024.66 1006.91C2025.15 1007.31 2025.64 1007.71 2026.13 1008.11L2027.11 1007.73C2029.07 1009.34 2031.03 1010.94 2032.98 1012.55L2032 1012.93C2032.49 1013.33 2032.97 1013.73 2033.46 1014.13L2034.44 1013.75C2036.39 1015.36 2038.33 1016.96 2040.27 1018.57L2039.29 1018.95C2039.77 1019.35 2040.25 1019.75 2040.74 1020.15L2041.72 1019.77C2043.66 1021.38 2045.58 1022.99 2047.5 1024.59L2046.52 1024.97C2047 1025.37 2047.48 1025.77 2047.96 1026.17L2048.94 1025.8C2050.86 1027.4 2052.78 1029.01 2054.68 1030.61L2053.69 1030.99C2054.17 1031.39 2054.64 1031.79 2055.12 1032.19L2056.11 1031.82C2058.01 1033.42 2059.91 1035.03 2061.8 1036.64L2060.81 1037.01C2061.28 1037.41 2061.75 1037.81 2062.23 1038.21L2063.22 1037.84C2065.12 1039.45 2067 1041.07 2068.89 1042.68L2067.89 1043.05C2068.37 1043.45 2068.84 1043.86 2069.32 1044.27L2070.32 1043.9C2072.22 1045.53 2074.12 1047.17 2076.01 1048.8L2075.01 1049.16C2075.48 1049.57 2075.95 1049.98 2076.42 1050.39L2077.42 1050.02C2079.31 1051.65 2081.19 1053.29 2083.07 1054.92L2082.07 1055.28L2082.66 1055.8L2083.47 1056.5L2084.47 1056.14C2086.35 1057.77 2088.21 1059.4 2090.07 1061.04L2089.07 1061.4L2089.44 1061.73C2089.78 1062.02 2090.12 1062.32 2090.46 1062.62L2091.46 1062.26C2093.32 1063.89 2095.17 1065.52 2097.01 1067.15L2096.01 1067.51C2096.47 1067.92 2096.93 1068.33 2097.39 1068.73L2098.39 1068.38C2100.24 1070.01 2102.07 1071.64 2103.9 1073.27L2102.89 1073.63C2103.34 1074.03 2103.8 1074.44 2104.26 1074.85L2105.27 1074.49C2107.09 1076.12 2108.91 1077.75 2110.72 1079.39L2109.71 1079.74C2110.16 1080.15 2110.61 1080.55 2111.07 1080.96L2112.08 1080.61C2113.92 1082.26 2115.75 1083.92 2117.57 1085.58L2116.56 1085.93L2117.2 1086.51L2117.93 1087.17L2118.94 1086.82C2120.77 1088.48 2122.58 1090.14 2124.39 1091.79L2123.37 1092.14C2123.83 1092.56 2124.28 1092.97 2124.73 1093.38L2125.75 1093.04C2127.56 1094.69 2129.36 1096.35 2131.15 1098.01L2130.13 1098.35L2130.89 1099.06L2131.47 1099.59L2132.49 1099.25C2134.29 1100.91 2136.07 1102.56 2137.85 1104.22L2136.82 1104.56C2137.27 1104.98 2137.71 1105.39 2138.15 1105.8L2139.18 1105.46C2140.95 1107.12 2142.72 1108.77 2144.48 1110.43L2143.45 1110.77C2143.89 1111.18 2144.33 1111.6 2144.77 1112.01L2145.8 1111.67C2147.56 1113.32 2149.31 1114.98 2151.05 1116.63L2150.02 1116.97C2150.46 1117.38 2150.89 1117.8 2151.33 1118.21L2152.36 1117.88C2154.12 1119.54 2155.87 1121.21 2157.61 1122.88L2156.58 1123.22L2157.07 1123.69C2157.34 1123.95 2157.62 1124.22 2157.9 1124.48L2158.93 1124.15C2160.68 1125.83 2162.43 1127.51 2164.17 1129.2L2163.14 1129.53C2163.57 1129.95 2164.01 1130.37 2164.44 1130.79L2165.48 1130.46C2167.22 1132.14 2168.95 1133.82 2170.67 1135.5L2169.63 1135.83C2170.07 1136.25 2170.5 1136.67 2170.93 1137.09L2171.97 1136.76C2173.69 1138.45 2175.4 1140.13 2177.11 1141.81L2176.07 1142.13C2176.49 1142.55 2176.92 1142.97 2177.34 1143.39L2178.39 1143.07C2180.09 1144.75 2181.79 1146.43 2183.48 1148.11L2182.43 1148.43C2182.85 1148.85 2183.28 1149.27 2183.7 1149.69L2184.74 1149.37C2186.43 1151.04 2188.11 1152.72 2189.78 1154.4L2188.73 1154.72C2189.15 1155.14 2189.57 1155.56 2189.99 1155.98L2191.03 1155.66C2192.71 1157.34 2194.38 1159.03 2196.04 1160.71L2194.99 1161.03C2195.41 1161.46 2195.83 1161.88 2196.26 1162.31L2197.31 1161.99C2198.99 1163.7 2200.67 1165.41 2202.33 1167.12L2201.28 1167.43C2201.7 1167.86 2202.11 1168.29 2202.53 1168.71L2203.58 1168.4C2205.25 1170.1 2206.91 1171.81 2208.56 1173.52L2207.5 1173.83C2207.91 1174.25 2208.33 1174.68 2208.74 1175.11L2209.79 1174.8C2211.44 1176.5 2213.08 1178.21 2214.71 1179.91L2213.65 1180.22C2214.06 1180.64 2214.47 1181.07 2214.88 1181.5L2215.94 1181.19C2217.56 1182.89 2219.19 1184.59 2220.8 1186.3L2219.74 1186.6C2220.14 1187.03 2220.54 1187.45 2220.95 1187.88L2222.01 1187.57C2223.62 1189.28 2225.22 1190.98 2226.82 1192.68L2225.75 1192.98L2225.91 1193.15C2226.26 1193.52 2226.6 1193.89 2226.95 1194.26L2228.01 1193.95C2229.61 1195.66 2231.2 1197.36 2232.78 1199.06L2231.71 1199.36C2232.11 1199.79 2232.51 1200.23 2232.92 1200.66L2233.98 1200.36C2235.59 1202.09 2237.19 1203.83 2238.78 1205.56L2237.71 1205.85C2238.1 1206.29 2238.5 1206.72 2238.9 1207.15L2239.97 1206.85C2241.56 1208.59 2243.13 1210.32 2244.71 1212.04L2243.63 1212.34C2244.03 1212.77 2244.42 1213.2 2244.81 1213.63L2245.88 1213.34C2247.45 1215.07 2249.01 1216.8 2250.56 1218.52L2249.49 1218.81C2249.87 1219.25 2250.26 1219.68 2250.65 1220.11L2251.72 1219.82C2253.27 1221.55 2254.81 1223.27 2256.35 1225L2255.27 1225.28C2255.65 1225.71 2256.03 1226.15 2256.42 1226.58L2257.49 1226.29C2259.02 1228.01 2260.55 1229.74 2262.06 1231.46L2260.98 1231.74C2261.36 1232.17 2261.73 1232.6 2262.11 1233.03L2263.19 1232.75C2264.71 1234.48 2266.21 1236.2 2267.71 1237.93L2266.63 1238.21L2267.08 1238.73C2267.31 1238.99 2267.54 1239.26 2267.77 1239.52L2268.85 1239.24C2270.38 1241 2271.89 1242.75 2273.4 1244.51L2272.31 1244.79C2272.69 1245.22 2273.06 1245.66 2273.44 1246.1L2274.52 1245.82C2276.03 1247.58 2277.52 1249.33 2279.01 1251.08L2277.92 1251.35C2278.29 1251.79 2278.66 1252.23 2279.03 1252.67L2280.12 1252.39C2281.6 1254.14 2283.08 1255.89 2284.54 1257.64L2283.45 1257.91C2283.82 1258.35 2284.18 1258.79 2284.55 1259.22L2285.64 1258.95C2287.1 1260.7 2288.56 1262.45 2290 1264.19L2288.91 1264.46C2289.27 1264.9 2289.63 1265.33 2289.99 1265.77L2291.08 1265.5C2292.53 1267.25 2293.96 1268.99 2295.38 1270.74L2294.29 1271C2294.64 1271.44 2295 1271.87 2295.35 1272.31L2296.45 1272.04C2297.88 1273.8 2299.3 1275.55 2300.72 1277.3L2299.62 1277.56C2299.98 1278 2300.33 1278.45 2300.69 1278.89L2301.79 1278.63C2303.23 1280.41 2304.65 1282.19 2306.06 1283.96L2304.96 1284.22C2305.31 1284.67 2305.67 1285.11 2306.02 1285.55L2307.12 1285.3C2308.54 1287.07 2309.94 1288.84 2311.33 1290.62L2310.22 1290.87C2310.57 1291.31 2310.92 1291.76 2311.27 1292.2L2312.38 1291.95C2313.76 1293.72 2315.15 1295.49 2316.52 1297.26L2315.41 1297.51C2315.75 1297.95 2316.09 1298.39 2316.44 1298.83L2317.55 1298.58C2318.91 1300.35 2320.27 1302.12 2321.62 1303.88L2320.51 1304.13C2320.85 1304.57 2321.19 1305.01 2321.52 1305.45L2322.64 1305.21C2323.98 1306.97 2325.32 1308.74 2326.65 1310.5L2325.53 1310.74C2325.87 1311.18 2326.2 1311.62 2326.53 1312.06L2327.64 1311.82C2328.99 1313.61 2330.33 1315.39 2331.65 1317.17L2330.53 1317.41C2330.87 1317.86 2331.2 1318.31 2331.54 1318.76L2332.65 1318.52C2333.99 1320.32 2335.31 1322.12 2336.63 1323.92L2335.51 1324.15C2335.84 1324.6 2336.17 1325.05 2336.49 1325.5L2337.61 1325.26C2338.93 1327.06 2340.23 1328.85 2341.52 1330.64L2340.4 1330.88C2340.72 1331.32 2341.04 1331.77 2341.37 1332.22L2342.49 1331.99C2343.78 1333.78 2345.06 1335.57 2346.33 1337.35L2345.2 1337.58C2345.52 1338.03 2345.84 1338.48 2346.15 1338.92L2347.28 1338.69C2348.55 1340.48 2349.8 1342.27 2351.05 1344.05L2349.92 1344.27C2350.23 1344.72 2350.55 1345.16 2350.86 1345.61L2351.99 1345.39C2353.23 1347.17 2354.46 1348.95 2355.69 1350.73L2354.56 1350.95C2354.87 1351.4 2355.18 1351.85 2355.48 1352.3L2356.62 1352.08C2357.87 1353.9 2359.11 1355.72 2360.34 1357.54L2359.21 1357.76C2359.51 1358.21 2359.82 1358.66 2360.13 1359.12L2361.26 1358.9C2362.49 1360.72 2363.71 1362.54 2364.91 1364.35L2363.78 1364.56C2364.08 1365.02 2364.38 1365.47 2364.68 1365.92L2365.82 1365.71C2367.02 1367.52 2368.21 1369.33 2369.4 1371.14L2368.26 1371.35C2368.55 1371.8 2368.85 1372.26 2369.14 1372.71L2370.28 1372.5C2371.46 1374.31 2372.63 1376.11 2373.79 1377.92L2372.64 1378.12C2372.93 1378.57 2373.22 1379.02 2373.51 1379.47L2374.65 1379.27C2375.81 1381.07 2376.95 1382.87 2378.09 1384.67L2376.94 1384.87C2377.23 1385.32 2377.51 1385.77 2377.79 1386.22L2378.94 1386.02C2380.08 1387.84 2381.22 1389.67 2382.35 1391.48L2381.2 1391.68C2381.48 1392.14 2381.77 1392.6 2382.05 1393.06L2383.2 1392.86C2384.33 1394.7 2385.46 1396.54 2386.57 1398.38L2385.42 1398.57C2385.7 1399.02 2385.98 1399.48 2386.25 1399.94L2387.4 1399.75C2388.51 1401.59 2389.61 1403.42 2390.7 1405.25L2389.55 1405.43C2389.82 1405.89 2390.09 1406.35 2390.36 1406.8L2391.51 1406.62C2392.6 1408.44 2393.67 1410.27 2394.73 1412.09L2393.57 1412.27C2393.84 1412.73 2394.1 1413.19 2394.37 1413.64L2395.52 1413.46C2396.58 1415.28 2397.63 1417.1 2398.66 1418.92L2397.51 1419.1C2397.77 1419.55 2398.02 1420 2398.28 1420.46L2399.44 1420.28C2400.48 1422.1 2401.5 1423.93 2402.51 1425.74L2401.35 1425.92C2401.49 1426.16 2401.63 1426.41 2401.77 1426.66C2401.89 1426.87 2402.01 1427.09 2402.13 1427.31L2403.29 1427.14C2404.32 1429 2405.35 1430.86 2406.36 1432.71L2405.19 1432.88C2405.44 1433.34 2405.7 1433.8 2405.95 1434.27L2407.11 1434.1C2408.12 1435.95 2409.11 1437.8 2410.09 1439.65L2408.93 1439.81C2409.03 1440.01 2409.13 1440.2 2409.24 1440.39C2409.38 1440.66 2409.52 1440.93 2409.66 1441.2L2410.83 1441.04C2411.81 1442.88 2412.77 1444.73 2413.73 1446.57L2412.56 1446.72C2412.8 1447.18 2413.04 1447.64 2413.28 1448.1L2414.44 1447.95C2415.4 1449.79 2416.33 1451.62 2417.26 1453.46L2416.09 1453.61L2416.28 1453.98C2416.45 1454.31 2416.62 1454.65 2416.78 1454.98L2417.96 1454.83C2418.88 1456.66 2419.79 1458.49 2420.69 1460.32L2419.52 1460.47C2419.75 1460.93 2419.97 1461.4 2420.2 1461.86L2421.38 1461.72C2422.3 1463.6 2423.21 1465.47 2424.1 1467.34L2422.93 1467.48C2423.15 1467.95 2423.37 1468.42 2423.6 1468.89L2424.77 1468.75C2425.67 1470.62 2426.54 1472.48 2427.41 1474.35L2426.23 1474.48C2426.45 1474.95 2426.67 1475.41 2426.88 1475.88L2428.06 1475.74C2428.92 1477.61 2429.77 1479.47 2430.61 1481.32L2429.43 1481.45C2429.64 1481.92 2429.85 1482.38 2430.05 1482.84L2431.24 1482.71C2432.07 1484.57 2432.89 1486.42 2433.7 1488.27L2432.51 1488.39C2432.71 1488.85 2432.92 1489.31 2433.12 1489.78L2434.3 1489.65C2435.1 1491.5 2435.89 1493.34 2436.67 1495.18L2435.49 1495.3C2435.68 1495.77 2435.88 1496.23 2436.08 1496.7L2437.26 1496.58C2438.06 1498.48 2438.84 1500.37 2439.61 1502.25L2438.43 1502.37C2438.62 1502.84 2438.81 1503.31 2439 1503.78L2440.19 1503.67C2440.95 1505.55 2441.71 1507.43 2442.45 1509.31L2441.25 1509.42C2441.44 1509.89 2441.62 1510.35 2441.81 1510.82L2443 1510.72C2443.73 1512.59 2444.45 1514.46 2445.16 1516.33L2443.96 1516.43C2444.14 1516.9 2444.32 1517.37 2444.49 1517.83L2445.69 1517.73C2446.39 1519.6 2447.08 1521.46 2447.75 1523.32L2446.55 1523.41C2446.61 1523.57 2446.67 1523.73 2446.73 1523.89C2446.84 1524.19 2446.95 1524.5 2447.06 1524.81L2448.26 1524.71C2448.92 1526.57 2449.58 1528.42 2450.23 1530.28L2449.03 1530.37C2449.19 1530.84 2449.36 1531.32 2449.52 1531.79L2450.72 1531.71C2451.38 1533.61 2452.02 1535.51 2452.65 1537.41L2451.45 1537.49C2451.61 1537.96 2451.77 1538.44 2451.92 1538.91L2453.12 1538.83C2453.75 1540.72 2454.36 1542.61 2454.95 1544.5L2453.75 1544.58C2453.9 1545.05 2454.05 1545.52 2454.19 1545.99L2455.4 1545.91C2455.98 1547.8 2456.56 1549.68 2457.12 1551.55L2455.92 1551.62C2456.06 1552.09 2456.2 1552.56 2456.34 1553.03L2457.54 1552.96C2458.1 1554.83 2458.64 1556.7 2459.16 1558.57L2457.96 1558.63C2458.09 1559.1 2458.22 1559.56 2458.35 1560.03L2459.56 1559.97C2460.08 1561.85 2460.6 1563.73 2461.1 1565.61L2459.89 1565.66C2460.01 1566.14 2460.14 1566.62 2460.27 1567.1L2461.47 1567.04C2461.98 1568.95 2462.46 1570.86 2462.94 1572.76L2461.72 1572.81C2461.84 1573.29 2461.96 1573.76 2462.08 1574.23L2463.29 1574.19C2463.75 1576.09 2464.2 1577.98 2464.64 1579.87L2463.43 1579.91C2463.53 1580.39 2463.64 1580.86 2463.75 1581.33L2464.96 1581.29C2465.39 1583.18 2465.8 1585.06 2466.2 1586.94L2464.99 1586.97C2465.09 1587.44 2465.19 1587.91 2465.28 1588.38L2466.5 1588.34C2466.89 1590.22 2467.27 1592.09 2467.63 1593.95L2466.41 1593.98C2466.5 1594.45 2466.59 1594.91 2466.68 1595.38L2467.9 1595.35C2468.26 1597.27 2468.61 1599.18 2468.94 1601.09L2467.73 1601.11C2467.81 1601.58 2467.89 1602.06 2467.98 1602.54L2469.19 1602.52C2469.52 1604.43 2469.83 1606.34 2470.13 1608.24L2468.91 1608.25C2468.98 1608.72 2469.05 1609.2 2469.13 1609.67L2470.34 1609.66C2470.63 1611.56 2470.9 1613.45 2471.16 1615.34L2469.94 1615.34C2470 1615.81 2470.07 1616.28 2470.13 1616.75L2471.35 1616.75C2471.59 1618.64 2471.83 1620.51 2472.04 1622.39L2470.82 1622.38C2470.85 1622.62 2470.88 1622.87 2470.9 1623.11C2470.93 1623.33 2470.95 1623.56 2470.98 1623.78L2472.2 1623.79C2472.41 1625.68 2472.6 1627.57 2472.78 1629.44L2471.56 1629.43C2471.61 1629.91 2471.65 1630.39 2471.69 1630.87L2472.91 1630.88C2473.09 1632.8 2473.24 1634.71 2473.38 1636.62L2472.16 1636.59C2472.17 1636.8 2472.19 1637 2472.2 1637.2C2472.22 1637.47 2472.24 1637.75 2472.26 1638.02L2473.48 1638.05C2473.61 1639.95 2473.73 1641.84 2473.82 1643.73L2472.6 1643.7C2472.62 1644.17 2472.65 1644.64 2472.67 1645.12L2473.89 1645.15C2473.98 1647.04 2474.05 1648.92 2474.1 1650.79L2472.88 1650.75C2472.89 1651.22 2472.9 1651.68 2472.92 1652.15L2474.14 1652.19C2474.18 1654.06 2474.21 1655.93 2474.22 1657.79L2473 1657.74C2473 1658.21 2473 1658.69 2473 1659.17L2474.22 1659.22C2474.23 1661.13 2474.21 1663.05 2474.17 1664.95L2472.95 1664.89C2472.95 1665.02 2472.95 1665.16 2472.94 1665.3C2472.94 1665.64 2472.93 1665.97 2472.92 1666.31L2474.14 1666.37C2474.1 1668.27 2474.03 1670.17 2473.95 1672.05L2472.73 1671.98C2472.71 1672.45 2472.69 1672.92 2472.67 1673.39L2473.89 1673.47C2473.8 1675.35 2473.69 1677.22 2473.56 1679.09L2472.34 1679.01C2472.31 1679.48 2472.27 1679.94 2472.24 1680.41L2473.46 1680.49C2473.32 1682.35 2473.17 1684.21 2472.99 1686.06L2471.77 1685.97C2471.73 1686.43 2471.68 1686.89 2471.64 1687.35L2472.86 1687.45C2472.67 1689.36 2472.46 1691.26 2472.23 1693.15L2471.01 1693.05C2470.95 1693.52 2470.89 1693.99 2470.83 1694.46L2472.05 1694.56C2471.81 1696.45 2471.55 1698.33 2471.27 1700.2L2470.05 1700.09C2469.98 1700.56 2469.91 1701.03 2469.84 1701.49L2471.06 1701.61C2470.77 1703.48 2470.46 1705.34 2470.13 1707.19L2468.91 1707.06C2468.87 1707.28 2468.83 1707.5 2468.8 1707.71C2468.75 1707.96 2468.71 1708.2 2468.66 1708.45L2469.88 1708.57C2469.54 1710.42 2469.18 1712.26 2468.8 1714.09L2467.58 1713.96C2467.49 1714.41 2467.39 1714.87 2467.3 1715.33L2468.51 1715.47C2468.11 1717.35 2467.68 1719.23 2467.24 1721.1L2466.03 1720.95C2465.92 1721.41 2465.8 1721.88 2465.69 1722.35L2466.9 1722.5C2466.44 1724.36 2465.97 1726.22 2465.47 1728.06L2464.26 1727.9C2464.13 1728.36 2464.01 1728.82 2463.88 1729.28L2465.09 1729.45C2464.58 1731.29 2464.05 1733.12 2463.49 1734.95L2462.29 1734.77C2462.15 1735.23 2462.01 1735.68 2461.87 1736.14L2463.08 1736.31C2462.51 1738.13 2461.93 1739.94 2461.32 1741.74L2460.12 1741.56C2459.96 1742.01 2459.81 1742.47 2459.65 1742.92L2460.85 1743.11C2460.22 1744.96 2459.56 1746.8 2458.87 1748.64L2457.68 1748.44C2457.51 1748.89 2457.34 1749.35 2457.16 1749.81L2458.36 1750.01C2457.66 1751.83 2456.95 1753.65 2456.2 1755.46L2455.01 1755.25C2454.83 1755.7 2454.64 1756.15 2454.45 1756.6L2455.64 1756.81C2454.89 1758.61 2454.12 1760.4 2453.32 1762.19L2452.13 1761.96C2451.93 1762.4 2451.73 1762.85 2451.53 1763.29L2452.72 1763.52C2451.9 1765.3 2451.07 1767.08 2450.21 1768.84L2449.03 1768.6C2448.81 1769.05 2448.59 1769.5 2448.36 1769.95L2449.54 1770.19C2448.65 1771.99 2447.73 1773.78 2446.79 1775.55L2445.62 1775.3C2445.38 1775.74 2445.15 1776.19 2444.91 1776.63L2446.08 1776.88C2445.12 1778.66 2444.14 1780.42 2443.14 1782.17L2441.98 1781.9C2441.73 1782.33 2441.47 1782.77 2441.22 1783.2L2442.38 1783.48C2441.37 1785.22 2440.33 1786.95 2439.26 1788.67L2438.11 1788.39C2437.84 1788.82 2437.57 1789.25 2437.3 1789.67L2438.46 1789.96C2437.37 1791.7 2436.25 1793.42 2435.11 1795.14L2433.96 1794.84C2433.67 1795.27 2433.38 1795.7 2433.09 1796.14L2434.23 1796.44C2433.07 1798.16 2431.87 1799.88 2430.65 1801.58L2429.52 1801.27C2429.21 1801.69 2428.91 1802.12 2428.6 1802.54L2429.73 1802.86C2428.5 1804.55 2427.24 1806.24 2425.95 1807.91L2424.83 1807.58C2424.51 1808 2424.19 1808.41 2423.86 1808.83L2424.98 1809.16C2423.69 1810.83 2422.36 1812.48 2421.01 1814.12L2419.9 1813.78C2419.56 1814.19 2419.22 1814.6 2418.88 1815.01L2419.99 1815.35C2418.6 1817.02 2417.18 1818.67 2415.73 1820.31L2414.64 1819.95C2414.28 1820.36 2413.91 1820.77 2413.55 1821.17L2414.65 1821.54C2413.19 1823.17 2411.7 1824.79 2410.19 1826.4L2409.11 1826.02C2408.73 1826.42 2408.35 1826.82 2407.97 1827.22L2409.05 1827.6C2407.52 1829.2 2405.97 1830.78 2404.39 1832.36L2403.32 1831.97C2402.92 1832.36 2402.53 1832.75 2402.13 1833.14L2403.19 1833.53C2401.59 1835.11 2399.96 1836.67 2398.3 1838.22L2397.25 1837.81C2396.83 1838.2 2396.41 1838.58 2395.99 1838.97L2397.04 1839.38C2395.36 1840.93 2393.64 1842.47 2391.9 1843.99L2390.87 1843.57C2390.43 1843.95 2390 1844.33 2389.56 1844.71L2390.59 1845.13C2388.83 1846.65 2387.05 1848.15 2385.23 1849.64L2384.22 1849.2C2383.77 1849.57 2383.31 1849.94 2382.86 1850.31L2383.87 1850.75C2382.04 1852.23 2380.18 1853.7 2378.3 1855.15L2377.3 1854.7C2376.83 1855.06 2376.36 1855.42 2375.89 1855.78L2376.88 1856.24C2374.97 1857.69 2373.03 1859.13 2371.07 1860.55L2370.09 1860.08C2369.6 1860.44 2369.11 1860.79 2368.62 1861.14L2369.59 1861.61C2367.61 1863.03 2365.6 1864.43 2363.56 1865.82L2362.61 1865.33C2362.1 1865.68 2361.59 1866.02 2361.08 1866.37L2362.03 1866.85C2359.97 1868.23 2357.89 1869.59 2355.78 1870.94L2354.85 1870.44C2354.32 1870.78 2353.79 1871.11 2353.26 1871.45L2354.19 1871.95C2352.07 1873.29 2349.92 1874.61 2347.74 1875.92L2346.83 1875.41C2346.28 1875.73 2345.74 1876.06 2345.19 1876.38L2346.1 1876.9C2343.91 1878.19 2341.69 1879.48 2339.44 1880.75L2338.55 1880.22C2337.99 1880.53 2337.43 1880.85 2336.87 1881.16L2337.75 1881.69C2335.48 1882.95 2333.19 1884.2 2330.87 1885.43L2330.01 1884.89C2329.43 1885.19 2328.85 1885.5 2328.26 1885.8L2329.12 1886.35C2326.78 1887.57 2324.42 1888.78 2322.02 1889.97L2321.19 1889.41C2320.89 1889.56 2320.59 1889.71 2320.29 1889.86C2319.99 1890 2319.69 1890.15 2319.39 1890.3L2320.22 1890.85C2317.81 1892.04 2315.38 1893.2 2312.93 1894.34L2312.12 1893.78C2311.51 1894.06 2310.9 1894.35 2310.28 1894.63L2311.09 1895.2C2308.62 1896.33 2306.14 1897.45 2303.63 1898.55L2302.85 1897.97C2302.22 1898.24 2301.59 1898.51 2300.97 1898.78L2301.74 1899.36C2299.22 1900.45 2296.68 1901.52 2294.12 1902.57L2293.36 1901.98C2292.72 1902.24 2292.08 1902.5 2291.44 1902.76L2292.19 1903.35C2289.61 1904.4 2287.01 1905.42 2284.39 1906.43L2283.66 1905.82C2283.01 1906.08 2282.35 1906.32 2281.69 1906.57L2282.41 1907.18C2279.78 1908.17 2277.12 1909.15 2274.44 1910.11L2273.74 1909.5C2273.07 1909.74 2272.4 1909.98 2271.73 1910.21L2272.42 1910.83C2269.73 1911.78 2267.02 1912.71 2264.29 1913.62L2263.62 1913C2262.94 1913.23 2262.26 1913.46 2261.57 1913.68L2262.23 1914.3C2259.49 1915.21 2256.72 1916.09 2253.94 1916.96L2253.3 1916.33C2252.61 1916.54 2251.92 1916.76 2251.22 1916.97L2251.85 1917.6C2249.07 1918.46 2246.27 1919.29 2243.45 1920.11L2242.84 1919.47C2242.13 1919.67 2241.43 1919.87 2240.72 1920.07L2241.32 1920.72C2238.49 1921.52 2235.64 1922.31 2232.76 1923.08L2232.18 1922.43C2231.47 1922.63 2230.75 1922.82 2230.03 1923.01L2230.61 1923.66C2227.72 1924.42 2224.82 1925.16 2221.89 1925.89L2221.34 1925.23C2220.61 1925.41 2219.88 1925.59 2219.15 1925.77L2219.7 1926.43C2216.79 1927.14 2213.85 1927.83 2210.9 1928.51L2210.38 1927.84C2209.65 1928.01 2208.92 1928.18 2208.18 1928.34L2208.7 1929.01C2205.75 1929.67 2202.79 1930.32 2199.8 1930.94L2199.31 1930.28C2198.57 1930.43 2197.82 1930.59 2197.08 1930.74L2197.56 1931.41C2194.57 1932.03 2191.56 1932.63 2188.53 1933.22L2188.07 1932.54C2187.31 1932.69 2186.56 1932.83 2185.8 1932.98L2186.25 1933.65C2183.21 1934.23 2180.16 1934.79 2177.08 1935.33L2176.65 1934.64C2175.89 1934.78 2175.13 1934.91 2174.38 1935.04L2174.8 1935.72C2171.77 1936.24 2168.73 1936.75 2165.67 1937.24L2165.26 1936.55C2164.5 1936.67 2163.73 1936.8 2162.97 1936.91L2163.37 1937.6C2160.29 1938.08 2157.2 1938.55 2154.1 1938.99L2153.72 1938.3C2152.95 1938.41 2152.17 1938.52 2151.39 1938.63L2151.76 1939.32C2148.65 1939.76 2145.52 1940.18 2142.37 1940.59L2142.02 1939.9C2141.24 1940 2140.45 1940.1 2139.66 1940.2L2140 1940.89C2136.88 1941.28 2133.74 1941.66 2130.59 1942.02L2130.26 1941.32C2129.49 1941.41 2128.71 1941.5 2127.93 1941.59L2128.25 1942.28C2125.12 1942.63 2121.98 1942.96 2118.83 1943.28L2118.53 1942.58C2117.75 1942.66 2116.96 1942.74 2116.17 1942.81L2116.46 1943.52C2113.3 1943.82 2110.12 1944.12 2106.92 1944.39L2106.65 1943.69C2105.86 1943.76 2105.06 1943.83 2104.26 1943.9L2104.52 1944.6C2101.32 1944.87 2098.11 1945.12 2094.87 1945.36L2094.63 1944.66C2093.83 1944.72 2093.02 1944.77 2092.21 1944.83L2092.45 1945.54C2089.28 1945.76 2086.1 1945.97 2082.91 1946.17L2082.69 1945.46C2081.9 1945.51 2081.11 1945.56 2080.31 1945.6L2080.52 1946.31C2077.34 1946.5 2074.13 1946.67 2070.92 1946.83L2070.73 1946.12C2069.92 1946.16 2069.12 1946.2 2068.32 1946.24L2068.5 1946.95C2065.28 1947.1 2062.05 1947.23 2058.8 1947.35L2058.63 1946.65C2057.82 1946.68 2057 1946.7 2056.19 1946.73L2056.36 1947.44C2053.1 1947.56 2049.83 1947.66 2046.54 1947.74L2046.4 1947.03C2045.59 1947.05 2044.78 1947.07 2043.98 1947.09L2044.12 1947.8C2040.92 1947.88 2037.72 1947.94 2034.5 1947.99L2034.38 1947.28C2033.58 1947.29 2032.77 1947.3 2031.97 1947.31L2032.08 1948.02C2028.86 1948.06 2025.62 1948.09 2022.37 1948.11L2022.27 1947.4C2021.46 1947.4 2020.65 1947.4 2019.84 1947.4L2019.93 1948.11C2016.68 1948.12 2013.41 1948.12 2010.13 1948.1L2010.05 1947.39C2009.23 1947.38 2008.42 1947.38 2007.6 1947.37L2007.67 1948.08C2004.39 1948.05 2001.09 1948.01 1997.78 1947.96L1997.72 1947.25C1996.92 1947.24 1996.12 1947.22 1995.32 1947.21L1995.37 1947.92C1992.16 1947.86 1988.94 1947.79 1985.71 1947.71L1985.67 1947C1984.86 1946.98 1984.05 1946.96 1983.25 1946.94L1983.28 1947.64C1980.04 1947.56 1976.79 1947.45 1973.53 1947.34L1973.51 1946.63C1972.7 1946.6 1971.88 1946.57 1971.07 1946.54L1971.08 1947.25C1967.81 1947.13 1964.54 1947 1961.25 1946.85L1961.25 1946.14C1960.82 1946.12 1960.39 1946.11 1959.96 1946.09C1959.57 1946.07 1959.18 1946.05 1958.79 1946.03L1958.78 1946.74C1955.49 1946.59 1952.18 1946.42 1948.87 1946.25L1948.89 1945.54C1948.09 1945.5 1947.29 1945.45 1946.48 1945.41L1946.46 1946.12C1943.25 1945.94 1940.03 1945.75 1936.79 1945.55L1936.83 1944.84C1936.03 1944.79 1935.22 1944.74 1934.41 1944.69L1934.37 1945.4C1931.13 1945.19 1927.89 1944.97 1924.63 1944.75L1924.69 1944.04C1923.88 1943.98 1923.06 1943.93 1922.25 1943.87L1922.19 1944.57C1918.93 1944.34 1915.66 1944.09 1912.38 1943.83L1912.45 1943.13C1911.64 1943.06 1910.82 1943 1910 1942.93L1909.92 1943.64C1906.63 1943.37 1903.34 1943.1 1900.04 1942.81L1900.13 1942.11C1899.31 1942.04 1898.49 1941.97 1897.67 1941.89L1897.58 1942.59C1894.38 1942.31 1891.17 1942.02 1887.95 1941.71L1888.06 1941.01C1887.26 1940.94 1886.46 1940.86 1885.65 1940.78L1885.54 1941.48C1882.32 1941.17 1879.09 1940.85 1875.86 1940.52L1875.98 1939.82C1875.17 1939.74 1874.36 1939.66 1873.55 1939.57L1873.43 1940.27C1870.19 1939.93 1866.94 1939.59 1863.68 1939.23L1863.82 1938.53C1863.01 1938.44 1862.19 1938.35 1861.38 1938.26L1861.24 1938.96C1857.97 1938.6 1854.71 1938.22 1851.43 1937.84L1851.58 1937.14C1850.77 1937.05 1849.95 1936.95 1849.13 1936.85L1848.97 1937.55C1845.76 1937.17 1842.54 1936.78 1839.32 1936.37L1839.49 1935.68C1838.69 1935.58 1837.89 1935.48 1837.1 1935.38L1836.92 1936.07C1833.73 1935.67 1830.53 1935.26 1827.32 1934.84L1827.51 1934.15L1826.77 1934.05C1826.22 1933.98 1825.66 1933.9 1825.1 1933.83L1824.92 1934.52C1821.7 1934.09 1818.49 1933.66 1815.26 1933.21L1815.46 1932.52C1814.65 1932.41 1813.85 1932.3 1813.04 1932.19L1812.84 1932.88C1809.61 1932.42 1806.37 1931.96 1803.13 1931.49L1803.34 1930.8C1802.53 1930.69 1801.72 1930.57 1800.91 1930.45L1800.7 1931.14C1797.46 1930.66 1794.22 1930.18 1790.97 1929.69L1791.2 1929C1790.41 1928.88 1789.62 1928.76 1788.83 1928.64L1788.61 1929.33C1785.45 1928.84 1782.28 1928.35 1779.11 1927.85L1779.35 1927.16L1778.47 1927.02C1777.97 1926.95 1777.47 1926.87 1776.97 1926.79L1776.73 1927.47C1773.55 1926.96 1770.37 1926.45 1767.19 1925.92L1767.44 1925.24L1767.02 1925.17C1766.36 1925.06 1765.71 1924.95 1765.05 1924.85L1764.79 1925.53C1761.6 1925 1758.41 1924.46 1755.2 1923.91L1755.47 1923.23C1754.67 1923.09 1753.87 1922.96 1753.07 1922.82L1752.8 1923.5C1749.6 1922.95 1746.38 1922.39 1743.17 1921.82L1743.44 1921.14C1743.06 1921.07 1742.67 1921 1742.29 1920.93C1741.87 1920.86 1741.45 1920.78 1741.03 1920.71L1740.75 1921.39C1737.6 1920.82 1734.43 1920.25 1731.27 1919.67L1731.55 1919C1730.77 1918.85 1729.99 1918.71 1729.21 1918.57L1728.92 1919.24C1725.78 1918.66 1722.64 1918.08 1719.5 1917.48L1719.8 1916.81C1719.01 1916.66 1718.23 1916.51 1717.44 1916.36L1717.14 1917.03C1713.99 1916.44 1710.84 1915.83 1707.68 1915.21L1707.99 1914.54C1707.2 1914.39 1706.42 1914.23 1705.63 1914.08L1705.31 1914.75C1702.15 1914.13 1698.99 1913.5 1695.82 1912.87L1696.14 1912.2L1695.4 1912.05C1694.85 1911.94 1694.31 1911.83 1693.76 1911.72L1693.44 1912.39C1690.27 1911.75 1687.09 1911.1 1683.9 1910.44L1684.24 1909.77C1683.44 1909.61 1682.65 1909.44 1681.85 1909.28L1681.52 1909.95C1678.42 1909.3 1675.33 1908.65 1672.23 1908L1672.57 1907.33C1671.79 1907.17 1671.02 1907 1670.24 1906.84L1669.9 1907.5C1666.8 1906.84 1663.69 1906.17 1660.58 1905.5L1660.94 1904.83C1660.16 1904.66 1659.38 1904.49 1658.61 1904.32L1658.25 1904.99C1655.14 1904.31 1652.02 1903.62 1648.9 1902.92L1649.26 1902.26C1648.48 1902.09 1647.71 1901.91 1646.92 1901.74L1646.56 1902.4C1643.44 1901.7 1640.31 1900.99 1637.18 1900.28L1637.55 1899.62C1636.77 1899.44 1635.99 1899.26 1635.2 1899.08L1634.83 1899.74C1631.69 1899.02 1628.56 1898.29 1625.41 1897.56L1625.8 1896.9C1625.02 1896.72 1624.25 1896.54 1623.47 1896.36L1623.09 1897.01C1620.03 1896.3 1616.98 1895.57 1613.92 1894.84L1614.31 1894.19C1613.54 1894.01 1612.78 1893.82 1612.01 1893.64L1611.62 1894.29C1608.56 1893.56 1605.49 1892.82 1602.42 1892.07L1602.82 1891.42C1602.06 1891.23 1601.29 1891.04 1600.52 1890.85L1600.12 1891.5C1597.05 1890.75 1593.97 1889.99 1590.89 1889.22L1591.3 1888.58C1590.53 1888.38 1589.76 1888.19 1588.99 1888L1588.58 1888.65C1585.5 1887.88 1582.42 1887.1 1579.33 1886.32L1579.75 1885.67L1578.9 1885.45C1578.41 1885.33 1577.92 1885.2 1577.43 1885.08L1577.01 1885.73C1573.92 1884.94 1570.83 1884.14 1567.73 1883.34L1568.16 1882.69C1567.39 1882.49 1566.62 1882.29 1565.85 1882.1L1565.42 1882.74C1562.41 1881.96 1559.4 1881.17 1556.38 1880.37L1556.81 1879.73C1556.06 1879.53 1555.31 1879.33 1554.55 1879.13L1554.11 1879.77C1551.09 1878.97 1548.07 1878.16 1545.04 1877.35L1545.49 1876.71C1545.06 1876.59 1544.62 1876.48 1544.19 1876.36L1543.22 1876.1L1542.77 1876.74C1539.75 1875.92 1536.71 1875.1 1533.68 1874.27L1534.13 1873.63C1533.37 1873.42 1532.62 1873.21 1531.86 1873L1531.4 1873.64C1528.37 1872.81 1525.33 1871.97 1522.29 1871.12L1522.75 1870.48C1521.99 1870.27 1521.23 1870.06 1520.47 1869.85L1520 1870.48C1516.96 1869.63 1513.92 1868.78 1510.87 1867.91L1511.33 1867.28C1510.57 1867.06 1509.81 1866.85 1509.05 1866.63L1508.58 1867.26C1505.6 1866.42 1502.61 1865.56 1499.63 1864.7L1500.1 1864.07L1498.97 1863.74L1497.87 1863.43L1497.4 1864.06C1494.42 1863.2 1491.44 1862.33 1488.46 1861.46L1488.95 1860.83C1488.2 1860.61 1487.46 1860.4 1486.71 1860.18L1486.23 1860.81C1483.25 1859.93 1480.26 1859.05 1477.27 1858.16L1477.77 1857.54C1477.02 1857.31 1476.27 1857.09 1475.53 1856.87L1475.03 1857.5C1472.05 1856.61 1469.05 1855.71 1466.06 1854.81L1466.56 1854.18C1465.81 1853.96 1465.06 1853.73 1464.32 1853.5L1463.82 1854.13C1460.82 1853.22 1457.83 1852.31 1454.83 1851.39L1455.33 1850.77C1454.58 1850.54 1453.83 1850.31 1453.08 1850.08L1452.58 1850.7C1449.61 1849.79 1446.64 1848.87 1443.67 1847.95L1444.19 1847.33C1443.45 1847.1 1442.72 1846.88 1441.99 1846.65L1441.48 1847.27C1438.55 1846.36 1435.62 1845.44 1432.68 1844.51L1433.2 1843.89C1432.47 1843.66 1431.74 1843.43 1431.01 1843.2L1430.48 1843.82C1427.55 1842.89 1424.61 1841.96 1421.68 1841.02L1422.2 1840.4C1421.47 1840.17 1420.73 1839.93 1420 1839.7L1419.47 1840.32C1416.53 1839.37 1413.59 1838.43 1410.65 1837.47L1411.18 1836.86C1410.45 1836.62 1409.71 1836.38 1408.98 1836.14L1408.44 1836.76C1405.5 1835.8 1402.55 1834.84 1399.6 1833.87L1400.14 1833.26C1399.41 1833.02 1398.67 1832.78 1397.93 1832.53L1397.39 1833.14C1394.44 1832.17 1391.49 1831.2 1388.54 1830.22L1389.09 1829.61C1388.36 1829.36 1387.63 1829.12 1386.9 1828.88L1386.35 1829.49C1383.47 1828.53 1380.59 1827.56 1377.7 1826.59L1378.26 1825.98C1377.54 1825.74 1376.81 1825.5 1376.09 1825.25L1375.54 1825.86C1372.65 1824.88 1369.77 1823.9 1366.88 1822.92L1367.44 1822.31C1366.72 1822.07 1365.99 1821.82 1365.27 1821.57L1364.71 1822.18C1361.82 1821.19 1358.93 1820.2 1356.04 1819.2L1356.6 1818.6C1355.88 1818.35 1355.16 1818.1 1354.44 1817.85L1353.87 1818.45C1350.98 1817.45 1348.08 1816.44 1345.19 1815.43L1345.76 1814.83C1345.03 1814.57 1344.31 1814.32 1343.59 1814.07L1343.01 1814.67C1340.12 1813.65 1337.22 1812.63 1334.32 1811.61L1334.9 1811.01C1334.17 1810.75 1333.45 1810.5 1332.72 1810.24L1332.14 1810.84C1329.27 1809.82 1326.39 1808.79 1323.51 1807.76L1324.1 1807.17C1323.39 1806.91 1322.68 1806.66 1321.97 1806.4L1321.39 1807C1318.55 1805.98 1315.71 1804.96 1312.87 1803.93L1313.46 1803.34C1312.76 1803.08 1312.05 1802.82 1311.34 1802.57L1310.75 1803.16C1307.91 1802.13 1305.07 1801.1 1302.22 1800.06L1302.82 1799.46C1302.11 1799.2 1301.4 1798.94 1300.69 1798.68L1300.09 1799.27C1297.25 1798.23 1294.41 1797.18 1291.56 1796.13L1292.16 1795.54C1291.45 1795.28 1290.74 1795.01 1290.03 1794.75L1289.43 1795.34C1286.58 1794.28 1283.74 1793.22 1280.89 1792.16L1281.5 1791.57C1280.79 1791.3 1280.08 1791.04 1279.36 1790.77L1278.76 1791.36C1275.91 1790.29 1273.06 1789.22 1270.21 1788.14L1270.82 1787.55C1270.11 1787.28 1269.4 1787.01 1268.69 1786.74L1268.07 1787.33C1265.27 1786.26 1262.46 1785.19 1259.65 1784.12L1260.27 1783.54C1259.58 1783.27 1258.88 1783 1258.18 1782.74L1257.56 1783.32C1254.77 1782.25 1251.98 1781.18 1249.19 1780.1L1249.82 1779.52C1249.12 1779.25 1248.42 1778.98 1247.72 1778.71L1247.1 1779.29C1244.31 1778.21 1241.52 1777.12 1238.72 1776.03L1239.35 1775.45C1238.93 1775.29 1238.51 1775.12 1238.09 1774.96L1237.26 1774.63L1236.63 1775.21C1233.84 1774.12 1231.04 1773.02 1228.25 1771.92L1228.88 1771.34C1228.18 1771.07 1227.48 1770.79 1226.79 1770.51L1226.15 1771.09C1223.36 1769.99 1220.56 1768.88 1217.76 1767.76L1218.4 1767.19C1217.7 1766.91 1217.01 1766.63 1216.31 1766.35L1215.67 1766.93C1212.87 1765.81 1210.07 1764.69 1207.27 1763.56L1207.92 1762.99L1207.37 1762.77C1206.85 1762.56 1206.34 1762.35 1205.82 1762.14L1205.18 1762.72C1202.43 1761.61 1199.68 1760.5 1196.94 1759.38L1197.59 1758.81C1196.9 1758.53 1196.22 1758.25 1195.53 1757.97L1194.88 1758.54C1192.14 1757.43 1189.4 1756.31 1186.66 1755.18L1187.31 1754.61L1186.68 1754.35C1186.2 1754.16 1185.73 1753.96 1185.26 1753.77L1184.6 1754.34C1181.86 1753.21 1179.12 1752.08 1176.37 1750.94L1177.03 1750.37C1176.35 1750.09 1175.66 1749.8 1174.98 1749.52L1174.32 1750.09C1171.57 1748.95 1168.83 1747.8 1166.09 1746.66L1166.75 1746.09C1166.07 1745.8 1165.38 1745.52 1164.7 1745.23L1164.03 1745.8C1161.29 1744.65 1158.54 1743.49 1155.8 1742.33L1156.47 1741.77C1155.78 1741.48 1155.1 1741.19 1154.41 1740.9L1153.74 1741.46C1150.99 1740.3 1148.25 1739.14 1145.51 1737.97L1146.18 1737.4C1145.49 1737.11 1144.81 1736.82 1144.12 1736.53L1143.45 1737.09C1140.75 1735.94 1138.05 1734.78 1135.36 1733.62L1136.04 1733.06L1135.15 1732.68L1134.02 1732.19L1133.34 1732.75C1130.65 1731.59 1127.96 1730.43 1125.27 1729.26L1125.95 1728.7C1125.28 1728.41 1124.6 1728.12 1123.93 1727.83L1123.25 1728.38C1120.56 1727.21 1117.86 1726.04 1115.17 1724.86L1115.86 1724.3C1115.19 1724.01 1114.52 1723.71 1113.84 1723.42L1113.15 1723.97C1110.46 1722.79 1107.77 1721.61 1105.08 1720.42L1105.77 1719.87C1105.1 1719.57 1104.43 1719.27 1103.75 1718.97L1103.06 1719.53C1100.37 1718.34 1097.68 1717.14 1094.99 1715.94L1095.68 1715.39C1095.01 1715.09 1094.34 1714.79 1093.67 1714.49L1092.97 1715.04C1090.27 1713.84 1087.58 1712.63 1084.89 1711.42L1085.59 1710.87C1084.92 1710.57 1084.25 1710.27 1083.58 1709.96L1082.87 1710.51C1080.22 1709.32 1077.57 1708.12 1074.91 1706.92L1075.62 1706.37C1074.96 1706.07 1074.3 1705.77 1073.64 1705.47L1072.93 1706.02C1070.29 1704.82 1067.65 1703.61 1065.01 1702.41L1065.72 1701.86C1065.06 1701.56 1064.4 1701.26 1063.74 1700.95L1063.03 1701.5C1060.39 1700.29 1057.75 1699.07 1055.11 1697.86L1055.83 1697.31C1055.17 1697.01 1054.51 1696.71 1053.85 1696.4L1053.13 1696.94C1050.49 1695.72 1047.85 1694.5 1045.21 1693.27L1045.93 1692.73L1045.31 1692.44C1044.86 1692.23 1044.41 1692.02 1043.96 1691.81L1043.23 1692.35C1040.6 1691.12 1037.96 1689.89 1035.32 1688.65L1036.04 1688.11C1035.38 1687.8 1034.72 1687.49 1034.06 1687.18L1033.34 1687.72C1030.7 1686.48 1028.06 1685.24 1025.42 1683.99L1026.15 1683.45C1025.49 1683.14 1024.84 1682.83 1024.18 1682.52L1023.45 1683.05C1020.83 1681.81 1018.22 1680.57 1015.6 1679.32L1016.34 1678.79L1015.59 1678.43C1015.19 1678.24 1014.79 1678.05 1014.4 1677.86L1013.66 1678.4C1011.07 1677.16 1008.48 1675.92 1005.89 1674.67L1006.63 1674.14C1005.98 1673.83 1005.34 1673.52 1004.69 1673.21L1003.95 1673.74C1001.36 1672.49 998.775 1671.24 996.188 1669.99L996.929 1669.46C996.282 1669.15 995.636 1668.83 994.989 1668.52L994.247 1669.05C991.659 1667.79 989.073 1666.53 986.486 1665.27L987.232 1664.74C986.586 1664.42 985.939 1664.11 985.293 1663.79L984.546 1664.32C981.96 1663.05 979.375 1661.79 976.79 1660.51L977.54 1659.99C976.894 1659.67 976.248 1659.35 975.602 1659.03L974.851 1659.56C972.266 1658.28 969.682 1657 967.099 1655.72L967.853 1655.2C967.207 1654.88 966.562 1654.56 965.916 1654.23L965.161 1654.76C962.581 1653.48 960.001 1652.19 957.422 1650.9L958.18 1650.38C957.545 1650.06 956.911 1649.74 956.277 1649.42L955.518 1649.95C952.979 1648.67 950.442 1647.4 947.905 1646.12L948.667 1645.6C948.033 1645.28 947.399 1644.96 946.765 1644.64L946.003 1645.16C943.466 1643.88 940.93 1642.59 938.395 1641.31L939.161 1640.79C938.527 1640.46 937.894 1640.14 937.261 1639.82L936.494 1640.34C933.959 1639.05 931.425 1637.76 928.892 1636.46L929.662 1635.94C929.029 1635.62 928.396 1635.29 927.763 1634.97L926.992 1635.48C924.459 1634.19 921.927 1632.88 919.396 1631.58L920.17 1631.06L919.769 1630.86C919.27 1630.6 918.771 1630.34 918.272 1630.08L917.498 1630.6C914.967 1629.29 912.437 1627.98 909.908 1626.66L910.685 1626.15L909.389 1625.48L908.789 1625.16L908.011 1625.68C905.482 1624.36 902.955 1623.04 900.428 1621.72L901.209 1621.2C900.577 1620.87 899.946 1620.54 899.315 1620.21L898.533 1620.72C896.036 1619.41 893.541 1618.1 891.046 1616.78L891.831 1616.27C891.21 1615.95 890.589 1615.62 889.969 1615.29L889.183 1615.8C886.699 1614.48 884.215 1613.17 881.733 1611.85L882.522 1611.34C881.902 1611.01 881.281 1610.68 880.661 1610.35L879.872 1610.86C877.39 1609.54 874.909 1608.21 872.429 1606.88L873.222 1606.38L872.387 1605.93L871.363 1605.38L870.569 1605.88C868.09 1604.55 865.612 1603.22 863.134 1601.88L863.93 1601.38C863.311 1601.05 862.692 1600.71 862.073 1600.38L861.276 1600.88C858.8 1599.54 856.324 1598.2 853.849 1596.85L854.649 1596.35C854.031 1596.02 853.412 1595.68 852.794 1595.34L851.993 1595.84C849.519 1594.5 847.046 1593.15 844.574 1591.79L845.378 1591.29L844.809 1590.98C844.381 1590.75 843.953 1590.51 843.525 1590.28L842.721 1590.78C840.252 1589.42 837.784 1588.06 835.317 1586.7L836.124 1586.21C835.516 1585.87 834.909 1585.53 834.301 1585.2L833.493 1585.7C831.061 1584.35 828.631 1583.01 826.202 1581.65L827.012 1581.16C826.405 1580.82 825.798 1580.48 825.191 1580.15L824.38 1580.64C821.951 1579.29 819.524 1577.93 817.097 1576.58L817.912 1576.08C817.305 1575.74 816.699 1575.4 816.093 1575.06L815.278 1575.56C812.852 1574.2 810.427 1572.83 808.004 1571.47L808.822 1570.98C808.216 1570.63 807.611 1570.29 807.006 1569.95L806.187 1570.44C803.764 1569.07 801.343 1567.7 798.923 1566.33L799.744 1565.84C799.139 1565.5 798.535 1565.15 797.93 1564.81L797.108 1565.3C794.688 1563.92 792.27 1562.54 789.853 1561.16L790.678 1560.67C790.074 1560.33 789.47 1559.98 788.867 1559.63L788.041 1560.12C785.625 1558.74 783.21 1557.35 780.797 1555.96L781.625 1555.47C781.022 1555.13 780.419 1554.78 779.816 1554.43L778.987 1554.92C776.591 1553.53 774.197 1552.15 771.803 1550.76L772.635 1550.28C772.041 1549.93 771.448 1549.59 770.854 1549.24L770.022 1549.72C767.646 1548.34 765.272 1546.96 762.899 1545.57L763.735 1545.09C763.142 1544.75 762.549 1544.4 761.956 1544.05L761.12 1544.53C758.748 1543.15 756.378 1541.75 754.009 1540.36L754.847 1539.88C754.255 1539.53 753.663 1539.18 753.071 1538.84L752.232 1539.31C749.863 1537.92 747.497 1536.52 745.131 1535.12L745.973 1534.64C745.382 1534.29 744.791 1533.94 744.2 1533.59L743.357 1534.07C740.993 1532.66 738.629 1531.25 736.267 1529.85L737.113 1529.37L736.349 1528.91L735.342 1528.31L734.496 1528.79C732.135 1527.38 729.776 1525.96 727.418 1524.54L728.267 1524.07L727.551 1523.64L726.499 1523.01L725.65 1523.48C723.293 1522.06 720.937 1520.64 718.583 1519.22L719.435 1518.74L718.477 1518.16L717.671 1517.68L716.818 1518.15C714.491 1516.74 712.165 1515.32 709.84 1513.9L710.696 1513.44C710.116 1513.08 709.537 1512.73 708.957 1512.38L708.101 1512.84C705.783 1511.43 703.467 1510.01 701.152 1508.59L702.011 1508.12L701.589 1507.86L700.276 1507.06L699.416 1507.52C697.102 1506.1 694.79 1504.68 692.479 1503.25L693.341 1502.78C692.764 1502.43 692.186 1502.07 691.609 1501.71L690.747 1502.18C688.437 1500.75 686.128 1499.31 683.822 1497.88L684.687 1497.42L684.006 1496.99L682.958 1496.34L682.092 1496.8C679.787 1495.36 677.483 1493.93 675.18 1492.48L676.049 1492.02C675.473 1491.66 674.898 1491.3 674.323 1490.94L673.454 1491.4C671.153 1489.96 668.853 1488.51 666.555 1487.06L667.427 1486.6C666.852 1486.24 666.278 1485.87 665.704 1485.51L664.832 1485.97C662.535 1484.52 660.24 1483.06 657.946 1481.61L658.821 1481.15L657.997 1480.63L657.104 1480.06L656.229 1480.51C653.965 1479.07 651.703 1477.63 649.442 1476.18L650.32 1475.73C649.755 1475.37 649.191 1475.01 648.626 1474.64L647.748 1475.1C645.488 1473.65 643.231 1472.2 640.975 1470.75L641.856 1470.29C641.292 1469.93 640.728 1469.57 640.165 1469.2L639.283 1469.66C637.028 1468.2 634.775 1466.75 632.524 1465.28L633.408 1464.83L632.656 1464.35L631.721 1463.74L630.836 1464.19C628.586 1462.73 626.337 1461.26 624.091 1459.8L624.978 1459.35C624.416 1458.98 623.855 1458.61 623.294 1458.25L622.406 1458.69C620.161 1457.23 617.917 1455.75 615.675 1454.28L616.566 1453.83C616.005 1453.47 615.445 1453.1 614.885 1452.73L613.994 1453.17C611.754 1451.7 609.515 1450.22 607.278 1448.74L608.171 1448.29C607.612 1447.92 607.053 1447.55 606.495 1447.18L605.601 1447.63Z" stroke="white" stroke-width="2" stroke-dasharray="2 8" shape-rendering="crispEdges"/>
</g>
<path d="M519.428 1481.45C169.986 1248.31 -69.7984 999.462 -175.028 785.629C-280.279 571.749 -250.83 393.129 -62.4784 300.102C125.873 207.074 437.944 217.016 790.647 308.678C1143.27 400.321 1536.13 573.564 1885.57 806.707C2235.01 1039.85 2474.8 1288.7 2580.03 1502.53C2685.28 1716.41 2655.83 1895.03 2467.48 1988.06C2279.13 2081.08 1967.06 2071.14 1614.35 1979.48C1261.73 1887.84 868.87 1714.6 519.428 1481.45Z" stroke="#353333" stroke-width="2"/>
</g>
<defs>
<filter id="filter0_d_196_99" x="-109.226" y="340.042" width="2623.45" height="1688.08" filterUnits="userSpaceOnUse" color-interpolation-filters="sRGB">
<feFlood flood-opacity="0" result="BackgroundImageFix"/>
<feColorMatrix in="SourceAlpha" type="matrix" values="0 0 0 0 0 0 0 0 0 0 0 0 0 0 0 0 0 0 127 0" result="hardAlpha"/>
<feOffset dy="40"/>
<feGaussianBlur stdDeviation="20"/>
<feComposite in2="hardAlpha" operator="out"/>
<feColorMatrix type="matrix" values="0 0 0 0 0 0 0 0 0 0 0 0 0 0 0 0 0 0 0.5 0"/>
<feBlend mode="normal" in2="BackgroundImageFix" result="effect1_dropShadow_196_99"/>
<feBlend mode="normal" in="SourceGraphic" in2="effect1_dropShadow_196_99" result="shape"/>
</filter>
</defs>
</svg>
