<svg width="1391" height="168" viewBox="0 0 1391 168" fill="none" xmlns="http://www.w3.org/2000/svg">
<path d="M51.92 124.972C107.653 124.678 148.06 123.872 173.14 122.552C172.113 128.565 171.453 134.798 171.16 141.252C171.013 147.558 170.94 155.552 170.94 165.232H0C1.17333 136.778 1.76 110.158 1.76 85.3717C1.76 60.5851 1.17333 33.9651 0 5.51173H170.94V45.3317H51.92V66.4517C58.96 66.5984 69.3733 66.6717 83.16 66.6717C106.48 66.6717 130.607 66.2317 155.54 65.3517V103.192C130.607 102.312 106.48 101.872 83.16 101.872C69.3733 101.872 58.96 101.945 51.92 102.092V124.972Z" fill="url(#paint0_linear_193_112)"/>
<path d="M295.376 83.3917L359.616 165.232H296.036L264.356 122.112L232.456 165.232H168.876L233.116 83.3917L171.076 5.51173H234.656L264.356 45.1117L293.836 5.51173H357.416L295.376 83.3917Z" fill="url(#paint1_linear_193_112)"/>
<path d="M446.806 167.432C413.22 167.432 388.506 160.172 372.666 145.652C356.826 130.985 348.906 110.452 348.906 84.0517C348.906 57.9451 356.753 37.5584 372.446 22.8917C388.286 8.22506 413.073 0.891724 446.806 0.891724C480.686 0.891724 505.473 8.22506 521.166 22.8917C537.006 37.5584 544.926 57.9451 544.926 84.0517C544.926 110.598 537.08 131.132 521.386 145.652C505.693 160.172 480.833 167.432 446.806 167.432ZM446.806 122.552C463.086 122.552 474.82 119.472 482.006 113.312C489.193 107.005 492.786 97.2517 492.786 84.0517C492.786 71.1451 489.193 61.5384 482.006 55.2317C474.82 48.9251 463.086 45.7717 446.806 45.7717C430.673 45.7717 419.013 48.9251 411.826 55.2317C404.64 61.5384 401.046 71.1451 401.046 84.0517C401.046 97.1051 404.64 106.785 411.826 113.092C419.013 119.398 430.673 122.552 446.806 122.552Z" fill="url(#paint2_linear_193_112)"/>
<path d="M768.161 5.51173L785.321 165.232H728.341L724.821 51.2717L702.821 165.232H645.181L622.741 52.1517L619.441 165.232H562.461L579.621 5.51173H654.421L673.561 109.572L690.281 5.51173H768.161Z" fill="url(#paint3_linear_193_112)"/>
<path d="M941.691 165.232C938.904 156.872 935.164 146.385 930.471 133.772H860.291L849.291 165.232H794.071L855.671 5.51173H936.631L998.671 165.232H941.691ZM917.931 99.4517C912.358 84.0517 906.638 68.6517 900.771 53.2517L895.491 38.9517C890.358 52.2984 882.804 72.4651 872.831 99.4517H917.931Z" fill="url(#paint4_linear_193_112)"/>
<path d="M1187.07 58.7517C1187.07 71.5117 1183.92 82.2917 1177.61 91.0917C1171.45 99.8917 1160.82 106.272 1145.71 110.232C1147.47 112.578 1148.72 114.412 1149.45 115.732L1185.09 165.232H1125.25C1118.8 153.205 1108.6 136.192 1094.67 114.192H1062.33V165.232H1010.41C1011.58 136.778 1012.17 110.158 1012.17 85.3717C1012.17 60.5851 1011.58 33.9651 1010.41 5.51173H1062.33V5.73173H1107.43C1137.06 5.73173 1157.74 10.4984 1169.47 20.0317C1181.2 29.5651 1187.07 42.4717 1187.07 58.7517ZM1062.33 47.9717V73.0517H1092.03C1104.5 73.0517 1113.88 72.6851 1120.19 71.9517C1126.64 71.0717 1131.12 69.7517 1133.61 67.9917C1136.1 66.2317 1137.35 63.6651 1137.35 60.2917C1137.35 57.0651 1136.18 54.5717 1133.83 52.8117C1131.48 51.0517 1127.08 49.8051 1120.63 49.0717C1114.18 48.3384 1104.64 47.9717 1092.03 47.9717H1062.33Z" fill="url(#paint5_linear_193_112)"/>
<path d="M1204.63 146.312C1209.62 138.832 1213.72 131.865 1216.95 125.412C1220.32 118.958 1223.55 111.478 1226.63 102.972C1237.04 108.985 1249.14 113.678 1262.93 117.052C1276.72 120.425 1289.55 122.112 1301.43 122.112C1313.6 122.112 1322.18 121.085 1327.17 119.032C1332.16 116.832 1334.65 114.485 1334.65 111.992C1334.65 103.045 1321.01 98.5717 1293.73 98.5717C1263.81 98.5717 1242.1 95.4917 1228.61 89.3317C1215.12 83.0251 1208.37 72.9051 1208.37 58.9717C1208.37 39.1717 1216.58 24.5784 1233.01 15.1917C1249.44 5.80506 1270.78 1.11172 1297.03 1.11172C1312.28 1.11172 1327.9 3.09173 1343.89 7.05173C1360.02 10.8651 1374.54 16.1451 1387.45 22.8917C1383.2 32.5717 1378.72 44.3784 1374.03 58.3117C1373.15 61.2451 1372.42 63.4451 1371.83 64.9117C1364.35 58.8984 1353.06 53.9117 1337.95 49.9517C1322.84 45.8451 1309.5 43.7917 1297.91 43.7917C1283.98 43.7917 1274.59 44.7451 1269.75 46.6517C1264.91 48.4117 1262.49 51.0517 1262.49 54.5717C1262.49 58.0917 1265.79 60.9517 1272.39 63.1517C1279.14 65.2051 1288.82 66.2317 1301.43 66.2317C1332.52 66.2317 1355.11 69.8251 1369.19 77.0117C1383.27 84.0517 1390.31 94.9051 1390.31 109.572C1390.31 130.105 1382.83 144.918 1367.87 154.012C1352.91 162.958 1330.25 167.432 1299.89 167.432C1283.61 167.432 1267.04 165.672 1250.17 162.152C1233.3 158.485 1218.12 153.205 1204.63 146.312Z" fill="url(#paint6_linear_193_112)"/>
<defs>
<linearGradient id="paint0_linear_193_112" x1="695.199" y1="1.23157" x2="695.199" y2="167.232" gradientUnits="userSpaceOnUse">
<stop stop-color="white"/>
<stop offset="1" stop-color="white" stop-opacity="0.7"/>
</linearGradient>
<linearGradient id="paint1_linear_193_112" x1="695.199" y1="1.23157" x2="695.199" y2="167.232" gradientUnits="userSpaceOnUse">
<stop stop-color="white"/>
<stop offset="1" stop-color="white" stop-opacity="0.7"/>
</linearGradient>
<linearGradient id="paint2_linear_193_112" x1="695.199" y1="1.23157" x2="695.199" y2="167.232" gradientUnits="userSpaceOnUse">
<stop stop-color="white"/>
<stop offset="1" stop-color="white" stop-opacity="0.7"/>
</linearGradient>
<linearGradient id="paint3_linear_193_112" x1="695.199" y1="1.23157" x2="695.199" y2="167.232" gradientUnits="userSpaceOnUse">
<stop stop-color="white"/>
<stop offset="1" stop-color="white" stop-opacity="0.7"/>
</linearGradient>
<linearGradient id="paint4_linear_193_112" x1="695.199" y1="1.23157" x2="695.199" y2="167.232" gradientUnits="userSpaceOnUse">
<stop stop-color="white"/>
<stop offset="1" stop-color="white" stop-opacity="0.7"/>
</linearGradient>
<linearGradient id="paint5_linear_193_112" x1="695.199" y1="1.23157" x2="695.199" y2="167.232" gradientUnits="userSpaceOnUse">
<stop stop-color="white"/>
<stop offset="1" stop-color="white" stop-opacity="0.7"/>
</linearGradient>
<linearGradient id="paint6_linear_193_112" x1="695.199" y1="1.23157" x2="695.199" y2="167.232" gradientUnits="userSpaceOnUse">
<stop stop-color="white"/>
<stop offset="1" stop-color="white" stop-opacity="0.7"/>
</linearGradient>
</defs>
</svg>
