<svg id="icon-tg" width="24" height="25" viewBox="0 0 24 25" fill="none" xmlns="http://www.w3.org/2000/svg">
<path fill-rule="evenodd" clip-rule="evenodd" d="M9.29684 15.051L9.29661 15.0509L9.29687 15.0506L9.29688 15.0505L9.29693 15.0506L16.0127 8.85712C16.3075 8.58978 15.9483 8.45942 15.5571 8.7019L7.26848 14.0458L3.68826 12.9038C2.91509 12.6619 2.90954 12.119 3.86185 11.7286L17.8131 6.23103C18.4503 5.9354 19.0653 6.38743 18.8221 7.38408L16.4462 18.8259C16.2803 19.639 15.7996 19.8334 15.1335 19.4578L11.5143 16.7252L9.77459 18.454C9.76911 18.4594 9.76365 18.4649 9.75822 18.4703C9.56365 18.6639 9.40267 18.824 9.05041 18.824L9.29684 15.051Z" fill="white"/>
</svg>
