<svg id="icon-vk" width="24" height="25" viewBox="0 0 24 25" fill="none" xmlns="http://www.w3.org/2000/svg">
<path d="M12.0313 18.8416C12.0313 18.8416 12.4103 18.7994 12.6045 18.5905C12.7822 18.3992 12.776 18.0381 12.776 18.0381C12.776 18.0381 12.7524 16.3519 13.534 16.1029C14.3043 15.8581 15.2934 17.7336 16.3431 18.4547C17.1361 19 17.738 18.8807 17.738 18.8807L20.543 18.8416C20.543 18.8416 22.0097 18.751 21.3144 17.5957C21.2568 17.5011 20.9087 16.7408 19.2293 15.1791C17.4699 13.5444 17.7061 13.8088 19.824 10.9806C21.1141 9.25844 21.6297 8.20703 21.4684 7.75745C21.3154 7.32742 20.3663 7.44161 20.3663 7.44161L17.209 7.46116C17.209 7.46116 16.9748 7.42927 16.8012 7.53317C16.6318 7.63502 16.5219 7.87267 16.5219 7.87267C16.5219 7.87267 16.0227 9.20495 15.3561 10.3387C13.95 12.7296 13.3881 12.8561 13.1581 12.708C12.623 12.3613 12.7565 11.317 12.7565 10.5753C12.7565 8.25744 13.1077 7.29141 12.0734 7.04141C11.7304 6.95808 11.4777 6.90356 10.5995 6.8943C9.4728 6.88298 8.51964 6.89841 7.97938 7.16281C7.61989 7.33873 7.34257 7.73173 7.51205 7.75436C7.72055 7.78214 8.19302 7.88193 8.44364 8.22349C8.76718 8.66484 8.75588 9.65453 8.75588 9.65453C8.75588 9.65453 8.94179 12.3829 8.32141 12.7213C7.89619 12.9538 7.31279 12.4796 6.05869 10.3099C5.41674 9.19877 4.93195 7.97041 4.93195 7.97041C4.93195 7.97041 4.83848 7.74099 4.67106 7.61753C4.46872 7.46836 4.18626 7.42206 4.18626 7.42206L1.18607 7.44161C1.18607 7.44161 0.735172 7.45396 0.569807 7.65045C0.42293 7.82432 0.558509 8.18542 0.558509 8.18542C0.558509 8.18542 2.90751 13.6904 5.56773 16.4651C8.00712 19.0082 10.7762 18.8416 10.7762 18.8416H12.0313Z" fill="white"/>
</svg>
