<svg id="icon-twitter" width="24" height="25" viewBox="0 0 24 25" fill="none" xmlns="http://www.w3.org/2000/svg">
<path d="M12.7704 9.8507L12.8051 10.413L12.227 10.3441C10.1229 10.0802 8.28476 9.18514 6.72404 7.68189L5.96102 6.93599L5.76448 7.48681C5.34829 8.71466 5.61419 10.0114 6.48126 10.8835C6.94369 11.3654 6.83965 11.4343 6.04194 11.1474C5.76448 11.0556 5.5217 10.9868 5.49858 11.0212C5.41766 11.1015 5.69512 12.1458 5.91477 12.5589C6.21536 13.1326 6.82808 13.6949 7.49862 14.0277L8.0651 14.2916L7.39457 14.3031C6.74716 14.3031 6.72404 14.3146 6.7934 14.5556C7.02462 15.3014 7.93793 16.0932 8.95529 16.4375L9.67206 16.6785L9.04777 17.0457C8.1229 17.5735 7.03618 17.8719 5.94946 17.8948C5.42922 17.9063 5.00146 17.9522 5.00146 17.9866C5.00146 18.1014 6.41189 18.744 7.23272 18.9965C9.69518 19.7424 12.6201 19.4211 14.8167 18.1473C16.3774 17.2408 17.9381 15.4391 18.6664 13.6949C19.0595 12.7654 19.4526 11.0671 19.4526 10.2523C19.4526 9.72448 19.4873 9.65563 20.1347 9.02449C20.5162 8.65728 20.8746 8.25565 20.9439 8.14089C21.0595 7.92287 21.048 7.92287 20.4584 8.11794C19.4757 8.4622 19.337 8.4163 19.8225 7.89991C20.1809 7.53271 20.6087 6.86714 20.6087 6.67206C20.6087 6.63764 20.4352 6.69501 20.2387 6.79829C20.0306 6.91304 19.5682 7.08517 19.2214 7.18845L18.5971 7.38353L18.0306 7.00485C17.7184 6.79829 17.2791 6.56879 17.0479 6.49994C16.4583 6.33928 15.5566 6.36223 15.0247 6.54584C13.5796 7.06222 12.6663 8.39335 12.7704 9.8507Z" fill="white"/>
</svg>
