<svg width="1920" height="2095" viewBox="0 0 1920 2095" fill="none" xmlns="http://www.w3.org/2000/svg">
<g opacity="0.5" filter="url(#filter0_d_1055_1361)">
<circle cx="-10.6755" cy="1477.28" r="280.577" transform="rotate(-15 -10.6755 1477.28)" stroke="white" stroke-width="2" stroke-dasharray="2 8" shape-rendering="crispEdges"/>
</g>
<g opacity="0.5" filter="url(#filter1_d_1055_1361)">
<circle r="29.7469" transform="matrix(-0.965926 0.258819 0.258819 0.965926 410.819 1168.32)" stroke="white" stroke-width="2" stroke-dasharray="2 8" shape-rendering="crispEdges"/>
</g>
<path d="M-8.6937 1478.42L1093.13 -271.935M-8.6937 1478.42L1895.29 67.3185M-8.6937 1478.42L2229.69 878.649" stroke="#353333" stroke-width="2"/>
<path d="M551.171 1243.6C563.384 1238.79 574.195 1234.42 583.227 1230.72C576.296 1234.19 568.323 1238.23 559.525 1242.72C527.788 1258.94 485.316 1281.24 442.385 1305.51C399.459 1329.79 356.05 1356.06 322.45 1380.24C305.652 1392.33 291.281 1403.92 280.642 1414.49C270.039 1425.02 263.006 1434.67 261.111 1442.9C260.582 1445.2 261.156 1447.42 262.568 1449.5C263.964 1451.56 266.196 1453.52 269.074 1455.4C274.833 1459.14 283.428 1462.7 293.936 1466.06C314.973 1472.8 343.963 1478.82 374.017 1483.95C411.191 1490.28 450.063 1495.25 477.671 1498.45C458.541 1498.11 434.274 1498.69 409.751 1501.97C386.604 1505.07 363.172 1510.57 343.602 1520.02C324.029 1529.47 308.236 1542.9 300.528 1561.87C297.476 1569.39 298.33 1577.9 301.987 1586.93C305.643 1595.96 312.138 1605.61 320.535 1615.5C337.33 1635.28 361.888 1656.2 387.126 1675.29C412.374 1694.38 438.348 1711.67 458.006 1724.19C465.943 1729.24 472.852 1733.52 478.27 1736.82C473.91 1734.99 468.64 1732.81 462.655 1730.4C444.867 1723.23 420.761 1713.99 395.505 1705.72C370.256 1697.45 343.82 1690.13 321.38 1686.81C310.161 1685.15 299.902 1684.49 291.271 1685.22C282.658 1685.95 275.54 1688.09 270.73 1692.14C256.55 1704.08 254.058 1725.86 257.928 1751.3C261.811 1776.82 272.155 1806.43 284.189 1834.53C296.229 1862.64 309.986 1889.3 320.73 1908.92C325.282 1917.24 329.294 1924.29 332.408 1929.66C328.689 1925.17 323.864 1919.4 318.181 1912.77C304.286 1896.54 285.258 1875.1 264.739 1854.25C244.227 1833.4 222.192 1813.1 202.284 1799.2C192.332 1792.24 182.871 1786.86 174.368 1783.81C165.881 1780.76 158.209 1780 151.936 1782.49C145.719 1784.95 140.125 1790.43 135.083 1797.95C130.032 1805.49 125.471 1815.17 121.359 1826.21C113.135 1848.28 106.656 1875.9 101.673 1902.88C96.6877 1929.87 93.1915 1956.27 90.9417 1975.91C89.8168 1985.74 89.0032 1993.87 88.4708 1999.56C88.4116 2000.19 88.3558 2000.79 88.3036 2001.36C88.1144 2000.41 87.9064 1999.36 87.6798 1998.24C86.3835 1991.79 84.4806 1982.58 82.0541 1971.51C77.2013 1949.36 70.252 1919.78 61.868 1890C53.4865 1860.24 43.6603 1830.25 33.047 1807.34C27.7419 1795.88 22.2198 1786.15 16.5552 1779.08C10.9149 1772.04 5.00017 1767.49 -1.12521 1766.72C-12.4369 1765.31 -24.5614 1771.47 -36.6638 1781.99C-48.8015 1792.54 -61.1112 1807.65 -72.8356 1824.56C-90.2236 1849.64 -106.392 1878.78 -118.867 1903.13C-109.939 1879.68 -100.491 1850.62 -94.7677 1820.71C-86.8625 1779.4 -86.0229 1736.27 -103.721 1704.13C-109.075 1694.41 -120.055 1690.11 -134.706 1689.76C-149.374 1689.41 -167.993 1693 -189.081 1699.36C-231.274 1712.09 -283.654 1736.01 -334.706 1762.21C-385.771 1788.42 -435.555 1816.94 -472.569 1838.9C-491.078 1849.89 -506.395 1859.23 -517.086 1865.83C-517.622 1866.17 -518.147 1866.49 -518.659 1866.81C-510.836 1860.55 -500.126 1851.9 -487.516 1841.5C-460.606 1819.31 -425.042 1789.16 -390.436 1757.31C-355.836 1725.46 -322.163 1691.89 -299.053 1662.86C-287.502 1648.36 -278.553 1634.94 -273.457 1623.41C-268.385 1611.94 -267.007 1602.05 -271.096 1594.83C-275.116 1587.73 -284.142 1581.87 -296.54 1576.97C-308.987 1572.04 -325.034 1568.01 -343.368 1564.72C-380.043 1558.12 -426.026 1554.42 -471.012 1552.42C-516.005 1550.42 -560.034 1550.11 -592.811 1550.31C-605.073 1550.38 -615.762 1550.52 -624.338 1550.67C-617.42 1549.85 -609.143 1548.82 -599.823 1547.58C-571.393 1543.8 -533.263 1538.08 -494.474 1530.29C-455.694 1522.5 -416.214 1512.65 -385.103 1500.6C-369.55 1494.57 -356.048 1487.99 -345.762 1480.81C-335.493 1473.65 -328.313 1465.82 -325.601 1457.27C-322.437 1447.3 -324.711 1436.44 -330.895 1425.17C-337.079 1413.9 -347.23 1402.12 -360.032 1390.21C-385.639 1366.38 -422.038 1341.89 -459.146 1319.82C-496.265 1297.75 -534.142 1278.09 -562.735 1263.95C-573.965 1258.4 -583.764 1253.7 -591.524 1250.03C-584.531 1252.43 -575.923 1255.32 -566.078 1258.51C-538.598 1267.42 -501.469 1278.67 -462.889 1288.04C-424.318 1297.42 -384.25 1304.92 -350.906 1306.32C-334.235 1307.01 -319.198 1306.18 -306.849 1303.27C-294.509 1300.36 -284.741 1295.35 -278.764 1287.58C-272.765 1279.78 -271.011 1269.33 -272.382 1257.16C-273.752 1244.99 -278.259 1230.99 -284.937 1215.96C-298.295 1185.89 -320.432 1151.51 -343.979 1119.05C-367.533 1086.57 -392.53 1055.99 -411.635 1033.52C-418.447 1025.51 -424.51 1018.54 -429.494 1012.87C-423.032 1018.8 -414.826 1026.25 -405.3 1034.74C-380.94 1056.45 -347.942 1084.94 -313.396 1112.07C-278.86 1139.19 -242.739 1164.98 -212.14 1181.26C-196.847 1189.4 -182.875 1195.19 -171.137 1197.57C-159.426 1199.94 -149.701 1198.95 -143.18 1193.18C-134.973 1185.92 -129.123 1175.3 -125.145 1162.32C-121.167 1149.34 -119.042 1133.94 -118.329 1117.03C-116.903 1083.21 -121.12 1043.23 -127.587 1004.24C-134.616 961.854 -144.314 920.591 -152.348 889.622C-140.504 925.494 -123.316 975.327 -103.932 1024.53C-87.3009 1066.75 -69.0404 1108.53 -51.1391 1140.65C-42.1898 1156.71 -33.3122 1170.38 -24.7532 1180.49C-16.2238 1190.56 -7.88739 1197.24 0.0111959 1199.06C10.6444 1201.51 21.4393 1198 32.1176 1190.16C42.7909 1182.32 53.4546 1170.1 63.9117 1154.88C84.8306 1124.44 105.076 1081.8 123.004 1037.66C144.039 985.872 161.916 931.936 173.973 893.05C163.439 936.125 149.266 998.818 138.725 1063.19C130.012 1116.4 123.774 1170.8 124.137 1216.22C124.318 1238.94 126.15 1259.44 130.163 1276.45C134.172 1293.44 140.383 1307.05 149.402 1315.85C158.849 1325.07 173.245 1330.34 191.038 1332.6C208.846 1334.86 230.179 1334.12 253.636 1331.22C300.554 1325.41 356.142 1310.9 409.377 1294.15C462.621 1277.4 513.553 1258.41 551.171 1243.6Z" stroke="#353333" stroke-width="2"/>
<defs>
<filter id="filter0_d_1055_1361" x="-332.322" y="1195.63" width="643.293" height="643.293" filterUnits="userSpaceOnUse" color-interpolation-filters="sRGB">
<feFlood flood-opacity="0" result="BackgroundImageFix"/>
<feColorMatrix in="SourceAlpha" type="matrix" values="0 0 0 0 0 0 0 0 0 0 0 0 0 0 0 0 0 0 127 0" result="hardAlpha"/>
<feOffset dy="40"/>
<feGaussianBlur stdDeviation="20"/>
<feComposite in2="hardAlpha" operator="out"/>
<feColorMatrix type="matrix" values="0 0 0 0 0 0 0 0 0 0 0 0 0 0 0 0 0 0 0.5 0"/>
<feBlend mode="normal" in2="BackgroundImageFix" result="effect1_dropShadow_1055_1361"/>
<feBlend mode="normal" in="SourceGraphic" in2="effect1_dropShadow_1055_1361" result="shape"/>
</filter>
<filter id="filter1_d_1055_1361" x="340.064" y="1137.57" width="141.51" height="141.509" filterUnits="userSpaceOnUse" color-interpolation-filters="sRGB">
<feFlood flood-opacity="0" result="BackgroundImageFix"/>
<feColorMatrix in="SourceAlpha" type="matrix" values="0 0 0 0 0 0 0 0 0 0 0 0 0 0 0 0 0 0 127 0" result="hardAlpha"/>
<feOffset dy="40"/>
<feGaussianBlur stdDeviation="20"/>
<feComposite in2="hardAlpha" operator="out"/>
<feColorMatrix type="matrix" values="0 0 0 0 0 0 0 0 0 0 0 0 0 0 0 0 0 0 0.5 0"/>
<feBlend mode="normal" in2="BackgroundImageFix" result="effect1_dropShadow_1055_1361"/>
<feBlend mode="normal" in="SourceGraphic" in2="effect1_dropShadow_1055_1361" result="shape"/>
</filter>
</defs>
</svg>
